<?xml version="1.0" encoding="UTF-8"?>
<svg width="83px" height="94px" viewBox="0 0 83 94" version="1.1" xmlns="http://www.w3.org/2000/svg" xmlns:xlink="http://www.w3.org/1999/xlink">
    <!-- Generator: Sketch 52.1 (67048) - http://www.bohemiancoding.com/sketch -->
    <title>logo-white</title>
    <desc>Created with Sketch.</desc>
    <g id="Page-1" stroke="none" stroke-width="1" fill="none" fill-rule="evenodd">
        <g id="kms--copy-2" transform="translate(-919.000000, -87.000000)">
            <g id="banner" transform="translate(0.000000, -1.000000)">
                <g id="logo-white" transform="translate(918.000000, 88.000000)">
                    <g id="面">
                        <path d="M65.9128557,39.979542 L65.9128557,39.979542 C65.9128557,40.83111 66.603188,41.5214423 67.454756,41.5214423 L73.929313,41.5214423 L80.5138118,51.6917528 L54.5798591,51.6917528 C53.7384312,51.6917528 53.0563192,52.3738649 53.0563192,53.2152927 L53.0563192,53.2152927 C53.0563192,54.0567206 53.7384312,54.7388326 54.5798591,54.7388326 L80.2414516,54.7388326 L73.4359187,63.8394939 L39.6476191,63.8394939 C38.8005578,63.8394939 38.113879,64.5261727 38.113879,65.373234 L38.113879,65.373234 C38.113879,66.2202953 38.8005578,66.9069741 39.6476191,66.9069741 L69.963121,66.9069741 C73.1208475,66.9069741 76.0930557,65.4155073 77.9803963,62.883871 L81.4132896,58.279065 C83.659984,55.2653996 83.7970774,51.1728453 81.7570982,48.0155839 L78.1886336,42.4926963 C76.5551333,39.9645394 73.7506795,38.4376417 70.7407127,38.4376417 L67.454756,38.4376417 C66.603188,38.4376417 65.9128557,39.127974 65.9128557,39.979542 Z" id="路径-3" fill="#FFFFFF"></path>
                        <path d="M38.9496819,54.0338081 L47.6448922,42.2358277 L62.1808369,42.2358277 C62.8520946,42.2358277 63.3962564,41.6916658 63.3962564,41.0204082 L63.3962564,41.0204082 C63.3962564,40.3491505 62.8520946,39.8049887 62.1808369,39.8049887 L50.9524791,39.8049887 C48.0802837,39.8049887 45.3805807,41.1758698 43.6859442,43.4948597 L36.9754442,52.6777031 C36.5972323,53.1952593 36.7101932,53.9214229 37.2277494,54.2996348 C37.2368895,54.3063141 37.2461268,54.3128593 37.2554584,54.3192683 L37.2554584,54.3192683 C37.8047787,54.6965455 38.5543154,54.5702558 38.9496819,54.0338081 Z" id="路径-4" fill="#B22C5D"></path>
                        <path d="M28.4263248,22.2640095 L24.0480427,15.5896987 L34.0654019,-3.21403597e-14 L45.3909744,-1.29674049e-13 C48.8059224,-1.60632197e-13 51.9847642,1.74265143 53.8214542,4.62161651 L68.8293212,28.1460678 C69.2519414,28.8085142 69.0575238,29.6881344 68.3950774,30.1107546 C68.3687162,30.1275722 68.3418077,30.1435163 68.3143958,30.1585608 L68.3143958,30.1585608 C67.5647589,30.5699839 66.6245051,30.3294615 66.1645113,29.6086077 L49.2095274,3.03854875 L37.6961444,3.03854875 L50.0542055,22.2607652 C50.4790213,22.9215405 50.2877384,23.8015861 49.626963,24.2264019 C49.6020537,24.2424163 49.5766503,24.2576488 49.5507899,24.2720773 L49.5507899,24.2720773 C48.8075076,24.6867833 47.8698931,24.4522544 47.4093914,23.7364417 L34.914755,4.31453893 L27.663092,15.5896987 L30.9839015,20.629181 C31.4392297,21.3201627 31.2481948,22.2494305 30.5572131,22.7047587 C30.551424,22.7085735 30.5456084,22.7123481 30.5397669,22.7160822 L30.5397669,22.7160822 C29.830353,23.1695599 28.8881481,22.968019 28.4263248,22.2640095 Z" id="路径-5" fill="#FFFFFF"></path>
                        <path d="M34.0906595,21.7923508 L34.0906595,21.7923508 C33.5580502,22.1489081 33.4153317,22.8697201 33.771889,23.4023295 C33.7834888,23.4196566 33.7955534,23.436668 33.8080697,23.4533451 L40.8851869,32.8830774 C42.396128,34.896294 44.7664792,36.0809853 47.2836173,36.0809853 L59.0542514,36.0809853 C59.7280492,36.0809853 60.2742702,35.5347643 60.2742702,34.8609665 L60.2742702,34.8609665 C60.2742702,34.1871687 59.7280492,33.6409476 59.0542514,33.6409476 L44.5092108,33.6409476 L35.8435244,22.0907152 C35.4313278,21.5413108 34.661411,21.4102592 34.0906595,21.7923508 Z" id="路径-6" fill="#E7B52E"></path>
                        <path d="M18.3783021,24.1997223 L3.42848844,47.4098727 C1.16824083,50.9189925 1.32532428,55.4628767 3.82250891,58.8075306 L6.87432794,62.8950452 C8.76197363,65.423301 11.732111,66.9123943 14.8873104,66.9123943 L22.3895655,66.9123943 C25.4272533,66.9123943 28.2607557,65.3828163 29.9275397,62.8432538 L31.7526673,60.0624344 C32.1849546,59.4037884 32.0014546,58.5194122 31.3428086,58.0871249 C31.3121391,58.0669957 31.2807046,58.0480571 31.2485751,58.0303513 L31.2485751,58.0303513 C30.4868423,57.6105781 29.5303618,57.8476427 29.0528391,58.5745668 L25.5895323,63.8466944 L13.4977901,63.8466944 L25.8118677,44.8806573 C26.2492782,44.2069615 26.057731,43.3062318 25.3840351,42.8688214 C25.3677455,42.858245 25.3512456,42.8479959 25.3345454,42.8380804 L25.3345454,42.8380804 C24.6069783,42.4060974 23.6682036,42.6245658 23.2061235,43.3333996 L10.5486496,62.7500424 L3.39962941,53.1771024 L21.0786294,25.6925095 C21.5097013,25.0223451 21.3158786,24.1296167 20.6457142,23.6985448 C20.618765,23.6812102 20.5912458,23.6647781 20.5632024,23.649276 L20.5632024,23.649276 C19.8035125,23.2293269 18.848344,23.4699644 18.3783021,24.1997223 Z" id="路径-9" fill="#FFFFFF"></path>
                        <path d="M29.2768681,28.966513 L37.846799,40.4421079 L29.330669,52.0421902 C28.9341352,52.582321 29.0453045,53.3408477 29.5801551,53.7444753 L29.5801551,53.7444753 C30.1066176,54.1417728 30.8554731,54.0370639 31.2527707,53.5106014 C31.2556415,53.5067973 31.2584894,53.5029761 31.2613144,53.4991379 L37.3570336,45.2172741 C39.4447145,42.3808755 39.4319126,38.5128284 37.3255027,35.6903108 L31.241173,27.537516 C30.8384953,26.9979415 30.0767689,26.8825295 29.5323277,27.2786025 L29.5323277,27.2786025 C28.9965581,27.6683671 28.8781976,28.4186609 29.2679622,28.9544306 C29.2709056,28.9584766 29.2738743,28.9625042 29.2768681,28.966513 Z" id="路径-16" fill="#66B7DB"></path>
                    </g>
                    <path d="M13.4253921,79.2267819 L15.6824496,79.2267819 L10.514115,84.199784 L16.4348021,90.7926566 L14.0469007,90.7926566 L9.30380881,85.349892 L7.78274832,86.7915767 L7.78274832,90.7926566 L6,90.7926566 L6,79.2267819 L7.78274832,79.2267819 L7.78274832,84.8153348 L13.4253921,79.2267819 Z M20.9979836,82.8660907 C22.3718447,82.8660907 23.4349515,83.2849783 24.154593,84.152674 C24.8088125,84.9306081 25.1522778,86.0077476 25.1686333,87.3840926 L18.7572816,87.3840926 C18.8227035,88.1321061 19.0353249,88.5805675 19.4278566,88.9844948 C19.8203883,89.3734619 20.3601195,89.5829057 21.04705,89.5829057 C21.6522031,89.5829057 22.1428678,89.4482632 22.5190441,89.1939386 C22.8134429,88.9844948 23.0587752,88.7753978 23.2877521,88.3265897 L25.0214339,88.3265897 C24.825168,89.0446827 24.4489918,89.6580538 23.8601942,90.1367825 C23.1241972,90.720233 22.1919343,91.0194384 21.0634055,91.0194384 C19.8203883,91.0194384 18.8227035,90.6603919 18.103062,89.9572592 C17.3179985,89.2092456 16.9254668,88.2069075 16.9254668,86.9352844 C16.9254668,85.7833436 17.2852875,84.8258862 18.03764,84.0479521 C18.7572816,83.2550578 19.7549664,82.8660907 20.9979836,82.8660907 Z M21.04705,84.0053996 C20.3928305,84.0053996 19.8858103,84.1835853 19.4932786,84.5723542 C19.1334578,84.9449244 18.8881255,85.4794816 18.7899925,86.1922246 L23.353174,86.1922246 C23.1896191,84.7343413 22.4209111,84.0053996 21.04705,84.0053996 Z M25.7410754,82.8228942 L27.6219567,82.8228942 L29.9444361,88.524838 L32.1687827,82.8228942 L34.0660194,82.8228942 L29.470127,94 L27.6219567,94 L29.0939507,90.5982721 L25.7410754,82.8228942 Z M39.3815534,79 C40.739059,79 41.8021658,79.275378 42.5708738,79.8585313 C43.3886482,80.4578834 43.8466019,81.3812095 43.9610904,82.6447084 L42.1946975,82.6447084 C42.0311426,81.899568 41.7367438,81.3488121 41.2787901,81.024838 C40.8208364,80.6846652 40.1666169,80.5226782 39.2834205,80.5226782 C38.5147125,80.5226782 37.9259149,80.6360691 37.5170276,80.862851 C37.0100075,81.1220302 36.7646751,81.5431965 36.7646751,82.1263499 C36.7646751,82.6447084 37.0427184,83.049676 37.6315161,83.3574514 C37.8932039,83.5032397 38.5637789,83.7462203 39.6595967,84.0701944 C41.2297237,84.5561555 42.2601195,84.9287257 42.7180732,85.2041037 C43.715758,85.8034557 44.2227782,86.6295896 44.2227782,87.6987041 C44.2227782,88.7354212 43.813891,89.5453564 42.9961165,90.1447084 C42.178342,90.7278618 41.0334578,91.0194384 39.5614638,91.0194384 C38.1385362,91.0194384 37.026363,90.7278618 36.224944,90.1771058 C35.2599701,89.4967603 34.7365945,88.4276458 34.6384615,86.9697624 L36.4048544,86.9697624 C36.5356983,87.8768898 36.8628081,88.5410367 37.3861837,88.9298056 C37.8604929,89.2861771 38.5801344,89.4643629 39.5614638,89.4643629 C40.4446602,89.4643629 41.1479462,89.3023758 41.6713219,89.0107991 C42.1946975,88.7192225 42.4563854,88.3142549 42.4563854,87.7958963 C42.4563854,87.1479482 42.0802091,86.6457883 41.3442121,86.2732181 C41.0825243,86.1436285 40.3138163,85.8844492 39.0217326,85.4956803 C37.5824496,85.0421166 36.6992532,84.7343413 36.3394324,84.5399568 C35.4398805,84.0053996 34.9982823,83.2278618 34.9982823,82.2235421 C34.9982823,81.2030238 35.423525,80.4092873 36.2903659,79.8261339 C37.1081404,79.275378 38.1385362,79 39.3815534,79 Z M45.7111277,79 L47.3907012,79 L47.3907012,84.0398515 C47.7014555,83.5538904 48.5670426,82.8654026 49.5810829,82.8654026 C50.5951233,82.8654026 51.7385008,83.3353522 52.2618765,83.9347042 C52.7525411,84.5016589 53.1038088,85.5606386 53.1038088,86.7429806 L53.1038088,90.7926566 L51.370127,90.7926566 L51.370127,86.7429806 C51.370127,86.0680346 51.1850869,84.275378 49.5810829,84.275378 C47.977079,84.275378 47.5173804,86.0680346 47.5173804,86.7429806 L47.5173804,90.7926566 L45.7111277,90.7926566 L45.7111277,79 Z M61.1452577,84.2840273 L61.1452577,83.7732181 L62.6445108,83.7732181 L62.6445108,90.9276458 L61.1452577,90.9276458 L61.1452577,89.5097092 C60.4673389,90.4282242 59.4393384,91.0140389 58.2884989,91.0140389 C56.2470664,91.0140389 54.5921583,89.1707188 54.5921583,86.8968683 C54.5921583,84.6230177 56.2470664,82.7796976 58.2884989,82.7796976 C59.4393384,82.7796976 60.4673389,83.3655123 61.1452577,84.2840273 Z M58.2884989,89.5291577 C59.593677,89.5291577 60.651733,88.3506416 60.651733,86.8968683 C60.651733,85.4430949 59.593677,84.2645788 58.2884989,84.2645788 C56.9833207,84.2645788 55.9252648,85.4430949 55.9252648,86.8968683 C55.9252648,88.3506416 56.9833207,89.5291577 58.2884989,89.5291577 Z M77.5007468,84.2852969 L77.5007468,79.0485961 L79,79.0485961 L79,90.9276458 L77.5007468,90.9276458 L77.5007468,89.5084396 C76.7383499,90.4276844 75.5817595,91.0140389 74.2868932,91.0140389 C71.9910344,91.0140389 70.129873,89.1707188 70.129873,86.8968683 C70.129873,84.6230177 71.9910344,82.7796976 74.2868932,82.7796976 C75.5817595,82.7796976 76.7383499,83.3660521 77.5007468,84.2852969 Z M68.2980583,82.8660907 C68.723301,82.8660907 69.0994772,82.9268181 69.393876,83.0634546 L69.393876,84.6727292 C68.9686333,84.5512745 68.5735247,84.5174384 68.180993,84.5174384 C67.6576173,84.5174384 67.1617031,84.8583389 66.7550121,85.291583 C66.348321,85.7248272 66.1064227,86.3546184 66.1064227,87.037801 L66.1064227,90.7926566 L64.3727409,90.7926566 L64.3727409,82.8282937 L66.1064227,82.8282937 L66.1064227,84.2628197 C66.3190441,83.8377282 66.5970874,83.5189097 66.9241972,83.306364 C67.3167289,83.0027272 67.7746826,82.8660907 68.2980583,82.8660907 Z M74.2868932,89.5291577 C75.7547374,89.5291577 76.9446602,88.3506416 76.9446602,86.8968683 C76.9446602,85.4430949 75.7547374,84.2645788 74.2868932,84.2645788 C72.819049,84.2645788 71.6291262,85.4430949 71.6291262,86.8968683 C71.6291262,88.3506416 72.819049,89.5291577 74.2868932,89.5291577 Z" id="KeyShard" fill="#FFFFFF"></path>
                </g>
            </g>
        </g>
    </g>
</svg>