<?xml version="1.0" encoding="UTF-8"?>
<svg width="34px" height="34px" viewBox="0 0 34 34" version="1.1" xmlns="http://www.w3.org/2000/svg" xmlns:xlink="http://www.w3.org/1999/xlink">
    <!-- Generator: Sketch 52.2 (67145) - http://www.bohemiancoding.com/sketch -->
    <title>icon-2-6</title>
    <desc>Created with Sketch.</desc>
    <g id="Page-1" stroke="none" stroke-width="1" fill="none" fill-rule="evenodd">
        <g id="blockchain-solutions1-wanxiang-blockchain-" transform="translate(-1146.000000, -1029.000000)" fill="#00B7DE">
            <g id="Group-4" transform="translate(400.000000, 791.000000)">
                <g id="Group-6" transform="translate(746.000000, 51.000000)">
                    <g id="icon-2-6" transform="translate(0.000000, 187.000000)">
                        <path d="M21.99391,13.540251 L23.1701109,13.540251 L23.1701109,19.3695795 L21.99391,19.3695795 L21.99391,13.540251 Z M23.005659,26.2000941 L9.30230753,26.2000941 C8.4051841,26.2000941 7.6775272,25.4724372 7.6775272,24.5778389 L7.6775272,10.9087364 C7.6775272,10.6533096 7.88686192,10.4464644 8.13855439,10.4464644 C8.39522594,10.4464644 8.60207113,10.6557992 8.60207113,10.9087364 L8.60207113,24.5778033 C8.60207113,24.9615481 8.91607322,25.2755502 9.29857322,25.2755502 L23.0031695,25.2755502 C23.259841,25.2755502 23.4654414,25.4848849 23.4654414,25.7365774 C23.4678954,25.9957385 23.2661004,26.2000941 23.005659,26.2000941 Z" id="形状" fill-rule="nonzero"></path>
                        <path d="M23.005659,25.2780753 L9.30230753,25.2780753 C8.91607322,25.2780753 8.60456067,24.9615837 8.60456067,24.5803285 L8.60456067,10.9087364 C8.60456067,10.6533096 8.39522594,10.4464644 8.1422887,10.4464644 C7.88686192,10.4464644 7.68001674,10.6557992 7.68001674,10.9087364 L7.68001674,24.5778033 C7.68001674,25.4724017 8.40767364,26.2000586 9.30479707,26.2000586 L23.0093933,26.2000586 C23.2661004,26.2000586 23.4716653,25.9907238 23.4716653,25.7390314 C23.4678954,25.4848849 23.2661004,25.2780753 23.005659,25.2780753 Z" id="路径"></path>
                        <path d="M33.0420607,11.7933766 C33.5504247,11.7933766 33.9690586,11.3747427 33.9690586,10.8651339 C33.9690586,10.3567699 33.554159,9.93813598 33.0420607,9.93813598 L29.8112071,9.93813598 L29.8112071,7.30662134 C29.8112071,5.51863389 28.3558933,4.06332008 26.5691506,4.06332008 L25.279569,4.06332008 L25.279569,0.949617155 C25.279569,0.441253138 24.8646339,0.0226192469 24.3525356,0.0226192469 C23.8404728,0.0226192469 23.4242929,0.438763598 23.4242929,0.949617155 L23.4242929,4.06705439 L21.2712322,4.06705439 L21.2712322,0.949546025 C21.2712322,0.441182008 20.8562971,0.0225481172 20.3442343,0.0225481172 C19.8358703,0.0225481172 19.4172364,0.438692469 19.4172364,0.949546025 L19.4172364,4.06698326 L17.2641757,4.06698326 L17.2641757,0.949546025 C17.2641757,0.441182008 16.8455063,0.0225481172 16.3371423,0.0225481172 C15.8287782,0.0225481172 15.4101444,0.438692469 15.4101444,0.949546025 L15.4101444,4.06698326 L13.2570837,4.06698326 L13.2570837,0.949546025 C13.2570837,0.441182008 12.8409038,0.0225481172 12.3300858,0.0225481172 C11.8217218,0.0225481172 11.4030879,0.438692469 11.4030879,0.949546025 L11.4030879,4.06698326 L7.43084937,4.06698326 C5.64410669,4.06698326 4.18879289,5.5210523 4.18879289,7.31028452 L4.18879289,9.94179916 L0.957939331,9.94179916 C0.445841004,9.94179916 0.0309414226,10.3567343 0.0309414226,10.8687971 C0.0309414226,11.3771611 0.445876569,11.7933054 0.957939331,11.7933054 L4.18879289,11.7933054 L4.18879289,13.9463661 L0.957939331,13.9463661 C0.445841004,13.9488556 0.0309414226,14.365 0.0309414226,14.8771339 C0.0309414226,15.3842531 0.445876569,15.802887 0.957939331,15.802887 L4.18879289,15.802887 L4.18879289,17.9565879 L0.957939331,17.9565879 C0.445841004,17.9565879 0.0309414226,18.3727322 0.0309414226,18.8835858 C0.0309414226,19.3919498 0.445876569,19.8105837 0.957939331,19.8105837 L4.18879289,19.8105837 L4.18879289,21.9636444 L0.957939331,21.9636444 C0.445841004,21.9636444 0.0309414226,22.3797887 0.0309414226,22.8931674 C0.0309414226,23.4040209 0.445876569,23.8176757 0.957939331,23.8176757 L4.18879289,23.8176757 L4.18879289,26.4467008 C4.18879289,28.2359686 5.64410669,29.6912469 7.43084937,29.6912469 L8.85625314,29.6912469 L8.85625314,33.0504184 C8.85625314,33.5587824 9.27488703,33.9774163 9.78453138,33.9774163 C10.2916506,33.9774163 10.7102845,33.561272 10.7102845,33.0504184 L10.7102845,29.6912469 L12.86459,29.6912469 L12.86459,33.0504184 C12.86459,33.5587824 13.2794895,33.9774163 13.7915879,33.9774163 C14.2999519,33.9774163 14.7185858,33.561272 14.7185858,33.0504184 L14.7185858,29.6912469 L16.8728912,29.6912469 L16.8728912,33.0504184 C16.8728912,33.5587824 17.286546,33.9774163 17.7998891,33.9774163 C18.3082531,33.9774163 18.726887,33.561272 18.726887,33.0504184 L18.726887,29.6912469 L20.8799477,29.6912469 L20.8799477,33.0504184 C20.8799477,33.5587824 21.2948473,33.9774163 21.8069456,33.9774163 C22.3190084,33.9774163 22.7339435,33.561272 22.7339435,33.0504184 L22.7339435,29.6912469 L26.5690795,29.6912469 C28.3558222,29.6912469 29.811136,28.2359331 29.811136,26.4467008 L29.811136,23.8151862 L33.0419895,23.8151862 C33.5503536,23.8151862 33.9689874,23.3990418 33.9689874,22.8881883 C33.9689874,22.3773703 33.5540879,21.9611904 33.0419895,21.9611904 L29.811136,21.9611904 L29.811136,19.8081297 L33.0419895,19.8081297 C33.5503536,19.8081297 33.9689874,19.3919854 33.9689874,18.8811318 C33.9689874,18.3727678 33.5540879,17.9541339 33.0419895,17.9541339 L29.811136,17.9541339 L29.811136,15.8004686 L33.0419895,15.8004686 C33.5503536,15.8004686 33.9689874,15.3842887 33.9689874,14.8734351 C33.9689874,14.3650711 33.5540879,13.9464372 33.0419895,13.9464372 L29.811136,13.9464372 L29.811136,11.7933766 L33.0420607,11.7933766 Z M27.9572113,26.444318 C27.9572113,27.2093536 27.332977,27.8323075 26.5691862,27.8323075 L7.42832427,27.8323075 C6.6632887,27.8323075 6.03905439,27.209318 6.03905439,26.444318 L6.03905439,7.31032008 C6.03905439,6.54528452 6.6632887,5.92105021 7.42832427,5.92105021 L26.5691506,5.92105021 C27.332977,5.92105021 27.9571757,6.54528452 27.9571757,7.31032008 L27.9571757,26.444318 L27.9572113,26.444318 Z" id="形状" fill-rule="nonzero"></path>
                        <path d="M11.8515962,18.043864 L14.1803473,18.043864 L14.6899561,19.3695795 L15.9683347,19.3695795 L13.6321151,13.540251 L12.386136,13.540251 L10.1159247,19.3695795 L11.3656381,19.3695795 L11.8515962,18.043864 Z M13.0003766,14.8996109 L13.801546,17.0620251 L12.2128996,17.0620251 L13.0003766,14.8996109 Z M17.7725042,17.1716715 L18.5400649,17.1716715 C19.0720795,17.1716715 19.4807552,17.1467406 19.7636025,17.08941 C19.9729372,17.0420732 20.1748033,16.9504937 20.3741444,16.8109372 C20.5734854,16.6713808 20.7404623,16.4807531 20.8700251,16.2352845 C20.9996234,15.9898515 21.0656318,15.6870523 21.0656318,15.3319728 C21.0656318,14.8697008 20.9559854,14.4872008 20.7267343,14.1956046 C20.5012176,13.9027992 20.2221402,13.7134163 19.889431,13.6274205 C19.6738724,13.5676004 19.2054121,13.5402155 18.4901674,13.5402155 L16.5963033,13.5402155 L16.5963033,19.3695439 L17.7725042,19.3695439 L17.7725042,17.1716715 Z M17.7725042,14.5283138 L18.3407238,14.5283138 C18.7668264,14.5283138 19.0459393,14.5407615 19.1879854,14.5706715 C19.3773682,14.6043159 19.5368766,14.6902762 19.6601799,14.8298326 C19.7860439,14.9693891 19.845864,15.1450795 19.845864,15.3544142 C19.845864,15.5288598 19.7997364,15.680864 19.7137762,15.8104623 C19.6265711,15.9400607 19.5007071,16.0359791 19.3474582,16.0957636 C19.1916841,16.1555837 18.8789623,16.189228 18.4179351,16.189228 L17.7725042,16.189228 L17.7725042,14.5283138 Z M21.99391,13.540251 L23.1701109,13.540251 L23.1701109,19.3695795 L21.99391,19.3695795 L21.99391,13.540251 Z" id="形状" fill-rule="nonzero"></path>
                    </g>
                </g>
            </g>
        </g>
    </g>
</svg>