<?xml version="1.0" encoding="UTF-8"?>
<svg width="34px" height="30px" viewBox="0 0 34 30" version="1.1" xmlns="http://www.w3.org/2000/svg" xmlns:xlink="http://www.w3.org/1999/xlink">
    <!-- Generator: Sketch 52.2 (67145) - http://www.bohemiancoding.com/sketch -->
    <title>icon-2-5</title>
    <desc>Created with Sketch.</desc>
    <g id="Page-1" stroke="none" stroke-width="1" fill="none" fill-rule="evenodd">
        <g id="blockchain-solutions1-wanxiang-blockchain-" transform="translate(-1146.000000, -952.000000)" fill="#00B7DE" fill-rule="nonzero">
            <g id="Group-4" transform="translate(400.000000, 791.000000)">
                <g id="Group-6" transform="translate(746.000000, 51.000000)">
                    <g id="icon-2-5" transform="translate(0.000000, 110.000000)">
                        <path d="M31.777106,29.2746577 L22.2965423,29.2746577 C21.0882519,29.2843046 20.1000673,28.3142565 20.0873327,27.1059947 L20.0873327,20.9923421 C20.1000673,19.7840804 21.0882519,18.8140323 22.2965423,18.8236792 L22.8919979,18.8236792 L22.8919979,17.9247034 C22.9452171,15.6740688 24.7849811,13.8772942 27.0362449,13.8772942 C29.2875087,13.8772942 31.1272727,15.6740688 31.1804919,17.9247034 L31.1804919,18.8236792 L31.7767198,18.8236792 C32.9847317,18.8142484 33.9724589,19.7843561 33.9847709,20.9923421 L33.9847709,27.1059947 C33.9724588,28.3138288 32.9849677,29.2838744 31.777106,29.2746577 Z M29.6366325,17.9247034 C29.5913768,16.5212807 28.4405902,15.407005 27.036438,15.407005 C25.6322857,15.407005 24.4814992,16.5212807 24.4362435,17.9247034 L24.4362435,19.2631269 L29.6366325,19.2631269 L29.6366325,17.9247034 Z M32.4401391,20.9923421 C32.4296217,20.6358592 32.1328559,20.3549762 31.7763336,20.3640632 L31.5871162,20.3640632 C31.4604576,20.6314704 31.191393,20.8022836 30.8955074,20.8031247 L23.1758239,20.8031247 C22.8803574,20.8018381 22.6118519,20.6310939 22.4853736,20.3640632 L22.2965423,20.3640632 C21.941431,20.3591411 21.6467946,20.6375228 21.6315784,20.9923421 L21.6315784,27.1059947 C21.6467946,27.460814 21.941431,27.7391958 22.2965423,27.7342736 L31.7767198,27.7342736 C32.133093,27.7431443 32.4296209,27.4623231 32.4401391,27.1059947 L32.4401391,20.9923421 Z M27.7842328,24.9724721 L27.7842328,26.2823198 C27.7480124,26.6686728 27.4237128,26.9639915 27.0356657,26.9639915 C26.6476185,26.9639915 26.3233189,26.6686728 26.2870985,26.2823198 L26.2870985,24.9724721 C25.8117151,24.7485817 25.5037187,24.2752242 25.4916131,23.749896 C25.5632118,22.9501983 26.2333484,22.3373799 27.0362449,22.3373799 C27.8391414,22.3373799 28.509278,22.9501983 28.5808767,23.749896 C28.5683762,24.2754313 28.2599438,24.7487698 27.7842328,24.9724721 Z M21.6319645,13.6993633 C21.4227601,13.9890559 21.1477315,14.2249082 20.8295283,14.3874967 C20.821419,14.4851947 20.8148543,14.610696 20.8102204,14.7064632 C20.8047216,15.1031743 20.7478698,15.4975029 20.6410832,15.879611 C20.6026967,16.0030194 20.5555957,16.1235464 20.5001356,16.2402825 C20.580098,16.3358349 20.647096,16.4415255 20.6993931,16.5546151 L20.789754,16.7519418 C20.8596486,16.906405 20.938811,17.0817207 21.0264688,17.2612841 L21.3187904,17.6053508 C21.5676602,17.9322057 21.517097,18.3966853 21.2037272,18.6623348 C20.8903575,18.9279842 20.423867,18.901821 20.1421672,18.6027968 L19.7869019,18.1861324 C19.7457348,18.1380119 19.7107118,18.0849586 19.6826392,18.0281938 C19.5788403,17.8165006 19.4789372,17.6029193 19.3829807,17.3875578 L19.3246708,17.2605118 L19.2231113,17.2354115 C18.962155,17.1717787 18.75329,16.9766343 18.6720995,16.7205963 C18.5909091,16.4645584 18.6491532,16.1847128 18.8257548,15.982329 C18.9779874,15.8214232 19.0941067,15.6298658 19.166346,15.4204692 C19.2316862,15.1635821 19.2655306,14.8996996 19.2671333,14.6346378 C19.2573639,14.2534279 19.3308999,13.8746779 19.4826094,13.5248199 C19.6018281,13.3270456 19.7814797,13.1728458 19.995041,13.084986 C20.1389189,13.0256822 20.2666425,12.933033 20.3676834,12.8146754 C20.5608814,12.4772576 20.6889895,12.1065563 20.7453459,11.7218484 C20.8082896,11.3719893 20.9986655,10.3158474 20.6727482,9.62230773 C20.6312756,9.53614713 20.586447,9.45164259 20.5383652,9.3689881 C20.4146538,9.17427925 20.3418849,8.95159027 20.3267507,8.72140123 C20.3138405,8.06130328 20.3492038,7.40114464 20.4325579,6.74620336 C20.4630644,6.40908746 20.4900955,6.12835064 20.4920263,6.0032355 C20.543047,5.33858206 20.4674376,4.6702845 20.2692131,4.03382998 C20.1569086,3.60653251 19.9186142,3.22292026 19.5853274,2.93289371 L18.9195911,2.82476947 C18.7712462,2.79858684 18.6337964,2.72959348 18.5241654,2.62628431 L18.1063425,2.23240319 C15.943858,0.878533459 13.5357771,1.87675174 12.3792341,2.35520141 C10.2410776,3.06225659 9.51046671,5.22010719 10.2132742,8.6144355 C10.2793296,8.95958357 10.2081188,9.31688477 10.014789,9.61033682 C9.93945455,9.71794701 9.89510823,9.84417375 9.88658457,9.97525608 C9.89430773,10.0613693 9.90164473,10.168335 9.90975404,10.2841824 L9.91516025,10.3641171 C9.99239184,11.4944014 10.1171208,12.7274037 10.6538804,13.077649 C10.7134589,13.0936801 10.771899,13.1136762 10.8288099,13.1375034 C11.1213074,13.2327013 11.3294263,13.4923949 11.3586186,13.7986059 L11.5335482,15.674175 C11.6045696,15.8288795 11.7041371,15.9687981 11.8270282,16.0865917 C11.9765195,16.2504228 12.0479379,16.4708526 12.0229262,16.6912221 C11.9979145,16.9115916 11.8789119,17.1104087 11.6965068,17.23657 L11.6215922,17.3991425 C11.3817599,18.024881 11.0448953,18.6089534 10.6233739,19.1299024 C10.5294406,19.2228334 10.4132353,19.2901102 10.2858719,19.3252983 L9.2069466,19.6245707 C8.35739911,19.9813807 7.43409549,20.385688 6.52160425,20.7849753 L6.38529052,20.8444437 C5.85779877,21.0761384 5.33571322,21.3035855 4.83332173,21.5198339 C4.55142644,21.6407013 4.25833257,21.7445778 3.96716947,21.8472958 C2.91913682,22.216849 1.95567275,22.5574403 1.61623992,23.5602925 C1.62357692,23.8421878 1.6127645,24.3264298 1.60040744,24.8693679 L1.59577356,25.0740316 C1.57414872,25.9799581 1.54982075,26.9982566 1.55715778,27.7358183 L12.3807787,27.7358183 L13.1708579,23.1138939 L12.5143894,21.7970953 C12.344249,21.4504443 12.3094159,21.0528249 12.4166914,20.6818712 C12.5246055,20.2908018 12.7979634,19.9663833 13.1650655,19.7937079 L15.193167,18.8692458 C15.5476598,18.7053647 15.9586764,18.7182448 16.3022126,18.904 L18.0082584,19.8087681 C18.353556,19.9988289 18.6038321,20.3244117 18.6987088,20.7069714 C18.7925191,21.0724042 18.7501044,21.4594896 18.579386,21.7959368 L17.9105604,23.084932 L19.168663,27.7335013 L19.3192646,27.7335013 C19.7446299,27.7335013 20.0894566,28.078328 20.0894566,28.5036933 C20.0894566,28.9290587 19.7446299,29.2738854 19.3192646,29.2738854 L1.42161633,29.2738854 C0.660051056,29.2712564 0.0382231531,28.6643031 0.0171599041,27.9030247 C0.00287206327,27.1245302 0.0291307837,26.0150985 0.0526864347,25.0365743 L0.0573203224,24.8319105 C0.069291202,24.3032603 0.0804897959,23.8317615 0.0804897959,23.512795 C0.0804447221,23.3612742 0.105095831,23.210759 0.153473641,23.0671688 C0.732710547,21.3530137 2.28969937,20.8038971 3.42577606,20.402679 C3.71191909,20.3015056 3.97373418,20.2096 4.22357836,20.1026343 C4.72172211,19.8883166 5.24110454,19.6612557 5.76589316,19.4314918 L5.90220693,19.3716373 C6.82203516,18.9692607 7.75344809,18.5607056 8.62577887,18.1965586 C8.68131254,18.1731349 8.73833013,18.1533981 8.79646068,18.1374765 L9.63287879,17.9057817 C9.8527954,17.53776 10.0477295,17.1553744 10.2163634,16.7612096 L10.2870304,16.6067464 C10.2007636,16.4641775 10.1289673,16.3133406 10.0727127,16.1564863 C10.0329725,16.0451282 10.0070351,15.9293179 9.99548108,15.8116472 L9.86341509,14.397923 C9.84692174,14.3889579 9.83081725,14.3792952 9.81514533,14.3689611 C8.6779102,13.6437565 8.48367275,12.1091649 8.37361773,10.466449 L8.34735901,10.1088667 C8.32243975,9.67809968 8.42881391,9.24991 8.65242377,8.88088448 L8.68061331,8.82875315 C7.51325786,3.0101253 10.4955556,1.35389388 11.8397714,0.912515349 C13.0727737,0.399311439 16.0875088,-0.849137163 18.9489391,0.944566455 C19.0271972,0.994204509 19.1005164,1.05123058 19.1678907,1.11486212 L19.4154179,1.34655689 L19.9012046,1.43073932 C20.066778,1.45999177 20.2257969,1.51857767 20.3707727,1.60373806 C21.2122108,2.09879252 21.6242413,3.19470876 21.7304348,3.51908146 C21.7439503,3.56426194 21.7690506,3.65462291 21.7729122,3.67740621 C22.0022563,4.44024717 22.0917406,5.23827889 22.0370442,6.03296964 C22.0347272,6.17198652 22.0069239,6.49635918 21.9713973,6.88522024 C21.9385739,7.24125786 21.8393313,8.32288626 21.8632731,8.55689796 C21.9350985,8.6997764 21.9972699,8.81098988 22.0698676,8.9631361 C22.5506342,9.98684082 22.4123897,11.1808412 22.266422,11.9902282 C22.1729352,12.5970461 21.9570795,13.1785294 21.6319645,13.6993633 Z M14.7355698,23.1254786 L13.9470353,27.7342736 L17.5691968,27.7342736 L16.3419869,23.1984625 C16.2916699,23.0126964 16.3128915,22.8148119 16.4014552,22.6439397 L17.1915344,21.1209327 L15.7021232,20.3312398 L13.9165288,21.1448745 L14.6656753,22.6532074 C14.7385498,22.7992096 14.763031,22.9646271 14.7355698,23.1254786 Z" id="形状"></path>
                    </g>
                </g>
            </g>
        </g>
    </g>
</svg>