<?xml version="1.0" encoding="UTF-8"?>
<svg width="34px" height="32px" viewBox="0 0 34 32" version="1.1" xmlns="http://www.w3.org/2000/svg" xmlns:xlink="http://www.w3.org/1999/xlink">
    <!-- Generator: Sketch 52.2 (67145) - http://www.bohemiancoding.com/sketch -->
    <title>icon-2-8</title>
    <desc>Created with Sketch.</desc>
    <g id="Page-1" stroke="none" stroke-width="1" fill="none" fill-rule="evenodd">
        <g id="blockchain-solutions1-aitos" transform="translate(-1146.000000, -973.000000)" fill="#00B7DE" fill-rule="nonzero">
            <g id="Group-4" transform="translate(400.000000, 791.000000)">
                <g id="Group-6" transform="translate(746.000000, 72.000000)">
                    <g id="icon-2-8" transform="translate(0.000000, 110.000000)">
                        <path d="M0.680872768,19.8857121 C0.320078125,19.8857121 0.0281183036,19.5937522 0.0281183036,19.2329576 L0.0281183036,0.664821429 C0.0281183036,0.304026786 0.320078125,0.0120669643 0.680872768,0.0120669643 L33.3191652,0.0120669643 C33.6799598,0.0120669643 33.9719196,0.304026786 33.9719196,0.664821429 L33.9719196,19.2329576 C33.9719196,19.5937522 33.6799598,19.8857121 33.3191652,19.8857121 M32.6663728,18.5801652 L32.6663728,1.31757589 L1.33362723,1.31757589 L1.33362723,18.5801652" id="形状"></path>
                        <path d="M14.6508125,28.5644777 C14.2900179,28.5644777 13.998058,28.2725179 13.998058,27.9117232 L13.998058,19.2243438 C13.998058,18.8635491 14.2900179,18.5715893 14.6508125,18.5715893 C15.0116071,18.5715893 15.303567,18.8635491 15.303567,19.2243438 L15.303567,27.9117232 C15.303567,28.2725179 15.0116071,28.5644777 14.6508125,28.5644777 Z M19.3502121,28.5644777 C18.9894174,28.5644777 18.6974576,28.2725179 18.6974576,27.9117232 L18.6974576,19.2243438 C18.6974576,18.8635491 18.9894174,18.5715893 19.3502121,18.5715893 C19.7110067,18.5715893 20.0029665,18.8635491 20.0029665,19.2243438 L20.0029665,27.9117232 C20.0029665,28.2725179 19.7110067,28.5644777 19.3502121,28.5644777 Z" id="形状"></path>
                        <path d="M25.0988683,31.4075759 L8.90086607,31.4075759 C8.54007143,31.4075759 8.24811161,31.1156161 8.24811161,30.7548214 L8.24811161,27.9117232 C8.24811161,27.5509286 8.54007143,27.2589688 8.90086607,27.2589688 L25.0989063,27.2589688 C25.4597009,27.2589688 25.7516607,27.5509286 25.7516607,27.9117232 L25.7516607,30.7548214 C25.7516607,31.1156161 25.4597009,31.4075759 25.0988683,31.4075759 Z M9.55362054,30.102067 L24.4461138,30.102067 L24.4461138,28.5645156 L9.55362054,28.5645156 L9.55362054,30.102067 Z" id="形状"></path>
                        <path d="M25.8128304,8.90629241 C24.9446161,8.90629241 24.4741563,8.51233259 24.1311964,8.22485045 C23.8519866,7.99026563 23.682404,7.84876339 23.2897344,7.84876339 C22.8970647,7.84876339 22.7274821,7.99026563 22.4482723,8.22485045 C22.1053125,8.51233259 21.6361429,8.90629241 20.7679286,8.90629241 C19.9009665,8.90629241 19.4317969,8.51233259 19.0888371,8.22485045 C18.8096272,7.99026563 18.6413348,7.84876339 18.2486652,7.84876339 C17.8572478,7.84876339 17.6991629,7.9819933 17.4097455,8.2242433 C17.0680759,8.51237054 16.5989063,8.90633036 15.730654,8.90633036 C14.863692,8.90633036 14.3945223,8.51237054 14.0528527,8.2242433 C13.7634353,7.9819933 13.6053504,7.84876339 13.213933,7.84876339 C12.8238058,7.84876339 12.6644308,7.9819933 12.3775938,8.2242433 C12.0346339,8.51237054 11.5654643,8.90633036 10.6985022,8.90633036 C9.83154018,8.90633036 9.36366071,8.51172545 9.02195312,8.22359821 C8.73507812,7.9819933 8.5769933,7.84876339 8.18815625,7.84876339 C7.82736161,7.84876339 7.53540179,7.55680357 7.53540179,7.19600893 C7.53540179,6.83521429 7.82736161,6.54325446 8.18815625,6.54325446 C9.05382812,6.54325446 9.52174554,6.93721429 9.86341518,7.22534152 C10.1502902,7.46759152 10.308375,7.60082143 10.6985022,7.60082143 C11.0899196,7.60082143 11.2582121,7.4593192 11.5374219,7.22473438 C11.8790915,6.93725223 12.3470089,6.54329241 13.213971,6.54329241 C14.080933,6.54329241 14.5501027,6.93725223 14.8917723,7.22537946 C15.1811897,7.46762946 15.3392746,7.60085938 15.730692,7.60085938 C16.1233616,7.60085938 16.291654,7.45935714 16.5708638,7.22477232 C16.9125335,6.93729018 17.3817031,6.54333036 18.2486652,6.54333036 C19.1156272,6.54333036 19.5847969,6.93729018 19.9277567,7.22477232 C20.2069665,7.45935714 20.3752589,7.60085938 20.7679286,7.60085938 C21.1605982,7.60085938 21.3301808,7.45935714 21.6093906,7.22477232 C21.9523504,6.93729018 22.4215201,6.54333036 23.2897344,6.54333036 C24.1579487,6.54333036 24.6271563,6.93729018 24.9700781,7.22412723 C25.2505781,7.45935714 25.4188705,7.60085938 25.8127924,7.60085938 C26.1735871,7.60085938 26.4655469,7.8928192 26.4655469,8.25361384 C26.4655469,8.61440848 26.1736629,8.90629241 25.8128304,8.90629241 Z M25.8128304,13.3545246 C24.9446161,13.3545246 24.4741563,12.9605647 24.1311964,12.6730826 C23.8519866,12.4384978 23.682404,12.2969955 23.2897344,12.2969955 C22.8970647,12.2969955 22.7274821,12.4384978 22.4482723,12.6730826 C22.1053125,12.9605647 21.6361429,13.3545246 20.7679286,13.3545246 C19.9009665,13.3545246 19.4317969,12.9605647 19.0888371,12.6730826 C18.8096272,12.4384978 18.6413348,12.2969955 18.2486652,12.2969955 C17.8572478,12.2969955 17.6991629,12.4302254 17.4097455,12.6724754 C17.0680759,12.9606027 16.5989063,13.3545625 15.730654,13.3545625 C14.863692,13.3545625 14.3945223,12.9606027 14.0528527,12.6724754 C13.7634353,12.4302254 13.6053504,12.2969955 13.213933,12.2969955 C12.8238058,12.2969955 12.6644308,12.4302254 12.3775938,12.6724754 C12.0346339,12.9606027 11.5654643,13.3545625 10.6985022,13.3545625 C9.83154018,13.3545625 9.36366071,12.9599576 9.02195312,12.6718304 C8.73507812,12.4302254 8.5769933,12.2969955 8.18815625,12.2969955 C7.82736161,12.2969955 7.53540179,12.0050357 7.53540179,11.6442411 C7.53540179,11.2834464 7.82736161,10.9914866 8.18815625,10.9914866 C9.05382812,10.9914866 9.52174554,11.3854464 9.86341518,11.6735737 C10.1502902,11.9158237 10.308375,12.0490536 10.6985022,12.0490536 C11.0899196,12.0490536 11.2582121,11.9075513 11.5374219,11.6729665 C11.8790915,11.3854844 12.3470089,10.9915246 13.213971,10.9915246 C14.080933,10.9915246 14.5501027,11.3854844 14.8917723,11.6736116 C15.1811897,11.9158616 15.3392746,12.0490915 15.730692,12.0490915 C16.1233616,12.0490915 16.291654,11.9075893 16.5708638,11.6730045 C16.9125335,11.3855223 17.3817031,10.9915625 18.2486652,10.9915625 C19.1156272,10.9915625 19.5847969,11.3855223 19.9277567,11.6730045 C20.2069665,11.9075893 20.3752589,12.0490915 20.7679286,12.0490915 C21.1605982,12.0490915 21.3301808,11.9075893 21.6093906,11.6730045 C21.9523504,11.3855223 22.4215201,10.9915625 23.2897344,10.9915625 C24.1579487,10.9915625 24.6271563,11.3855223 24.9700781,11.6723594 C25.2505781,11.9075893 25.4188705,12.0490915 25.8127924,12.0490915 C26.1735871,12.0490915 26.4655469,12.3410513 26.4655469,12.701846 C26.4655469,13.0626406 26.1736629,13.3545246 25.8128304,13.3545246 Z" id="形状"></path>
                    </g>
                </g>
            </g>
        </g>
    </g>
</svg>