<?xml version="1.0" encoding="UTF-8"?>
<svg width="34px" height="34px" viewBox="0 0 34 34" version="1.1" xmlns="http://www.w3.org/2000/svg" xmlns:xlink="http://www.w3.org/1999/xlink">
    <!-- Generator: Sketch 52.2 (67145) - http://www.bohemiancoding.com/sketch -->
    <title>icon-2-7</title>
    <desc>Created with Sketch.</desc>
    <g id="Page-1" stroke="none" stroke-width="1" fill="none" fill-rule="evenodd">
        <g id="blockchain-solutions1-aitos" transform="translate(-1146.000000, -863.000000)" fill="#00B7DE" fill-rule="nonzero">
            <g id="Group-4" transform="translate(400.000000, 791.000000)">
                <g id="Group-6" transform="translate(746.000000, 72.000000)">
                    <g id="icon-2-7">
                        <path d="M33.9660379,29.931864 L33.9660379,29.9320535 C33.9660379,32.1640758 32.1567224,33.9733913 29.9248896,33.9733913 L29.9247001,33.9736187 L4.05915273,33.9736187 C4.05896321,33.9736187 4.05896321,33.9733913 4.05877369,33.9733913 C1.82697882,33.9733913 0.0176254181,32.1640758 0.0176254181,29.9319019 L0.0176254181,5.68304125 C0.0176254181,3.89745373 1.46514604,2.44993311 3.25096098,2.44993311 L16.3214404,2.44993311 L19.6341472,0.0780824972 C20.0494247,-0.0726243032 20.5084437,0.140851728 20.6595295,0.554651059 L21.3486644,2.4498573 L27.5000111,2.4498573 C29.285447,2.4498573 30.7329677,3.89741583 30.7329677,5.68319287 L30.7329677,8.10799554 L30.7331572,8.10799554 C32.5187447,8.10799554 33.9662653,9.55547826 33.9662653,11.3412553 L33.9660379,29.931864 Z M3.25096098,4.06646823 L3.25077146,4.06646823 C2.3579398,4.06646823 1.63416054,5.59855295 1.63416054,6.49138462 C1.63416054,7.38421628 2.3579398,8.10799554 3.25096098,8.10799554 L4.4190524,8.10799554 L3.61070903,8.10799554 L3.76380379,8.10799554 C3.77418952,8.10371237 3.78086065,8.09499443 3.79158751,8.09093868 L13.4763188,4.06646823 L3.25092308,4.06646823 L3.25096098,4.06646823 Z M20.2879175,4.21239911 L19.4297681,1.84892531 L19.428631,2.65764771 L19.4284415,2.65745819 L16.5494716,4.06646823 L16.5422698,4.06646823 L7.61903233,8.10807135 L22.2186778,8.10807135 L20.2879175,4.21243701 L20.2879175,4.21239911 Z M29.1165463,5.68323077 C29.1165463,4.79024749 28.3925775,4.06646823 27.4999732,4.06646823 L21.9365195,4.06646823 L23.9202319,8.10799554 L29.1165463,8.10799554 L29.1165463,5.68323077 Z M30.7331193,9.72475808 L3.25096098,9.72475808 C3.25058194,9.72475808 3.25058194,9.72437904 3.25035452,9.72437904 C2.6584437,9.72437904 2.11133556,9.55369677 1.63416054,9.27612486 L1.63416054,29.9320535 C1.63416054,31.2712821 2.7199621,32.3567804 4.05915273,32.3567804 L29.9245485,32.3567804 C31.2639666,32.3567804 32.3494649,31.2712062 32.3494649,29.9320535 L32.3494649,24.2738016 L29.1163188,24.2738016 C27.3307313,24.2738016 25.8832107,22.8265084 25.8832107,21.0406934 C25.8832107,19.2552575 27.3307313,17.8075474 29.1163188,17.8075474 L32.3494649,17.8075474 L32.3494649,11.3412553 C32.3494649,10.4483478 31.6257235,9.72475808 30.7331193,9.72475808 Z M32.3494649,22.6572664 L32.3494649,19.4241204 L29.1163188,19.4241204 C28.2235251,19.4241204 27.4997837,20.1478618 27.4997837,21.0406934 C27.4997837,21.9337146 28.2235251,22.6572664 29.1163188,22.6572664 L32.3494649,22.6572664 Z M29.1163188,20.2323501 L30.7329298,20.2323501 L30.7329298,21.8488852 L29.1163188,21.8488852 L29.1163188,20.2323501 Z" id="形状"></path>
                    </g>
                </g>
            </g>
        </g>
    </g>
</svg>