<?xml version="1.0" encoding="UTF-8"?>
<svg width="30px" height="34px" viewBox="0 0 30 34" version="1.1" xmlns="http://www.w3.org/2000/svg" xmlns:xlink="http://www.w3.org/1999/xlink">
    <!-- Generator: Sketch 52.2 (67145) - http://www.bohemiancoding.com/sketch -->
    <title>icon-2-9</title>
    <desc>Created with Sketch.</desc>
    <g id="Page-1" stroke="none" stroke-width="1" fill="none" fill-rule="evenodd">
        <g id="blockchain-solutions1-aitos" transform="translate(-1146.000000, -1080.000000)" fill="#00B7DE" fill-rule="nonzero">
            <g id="Group-4" transform="translate(400.000000, 791.000000)">
                <g id="Group-6" transform="translate(746.000000, 72.000000)">
                    <g id="icon-2-9" transform="translate(0.000000, 217.000000)">
                        <path d="M26.6392076,17.8941411 L26.6392076,2.95406125 C26.6392076,1.32423436 25.3149733,1.42108547e-14 23.6851464,1.42108547e-14 L11.8575831,1.42108547e-14 L9.63920762,0.0226364961 L0.030019875,9.60918774 L0.030019875,31.0459388 C0.030019875,32.6757656 1.35425423,34 2.98408112,34 L23.6851464,34 C25.3149733,34 26.6392076,32.6757656 26.6392076,31.0459388 L26.6392076,29.7217044 L24.4208321,29.7217044 L24.4208321,30.310253 C24.4208321,31.1251665 23.7643741,31.7929427 22.9381424,31.7929427 L3.71976688,31.7929427 C2.90485342,31.7929427 2.23707715,31.1364847 2.23707712,30.310253 L2.23707712,11.8275632 L8.89220361,11.8275632 C10.5220305,11.8275632 11.8462649,10.5033289 11.8462649,8.87350199 L11.8462649,2.21837549 L22.9381424,2.21837549 C23.7530558,2.21837549 24.4208321,2.87483354 24.4208321,3.70106525 L24.4208321,17.9054594 L26.6392076,17.9054594 L26.6392076,17.8941411 Z M9.91084544,8.02463381 C9.91084544,8.89613848 9.19779618,9.60918774 8.32629151,9.60918774 L3.45944731,9.60918774 L9.91084544,3.15778961 L9.91084544,8.02463381 Z" id="形状"></path>
                        <path d="M13.2497269,27.9786951 L13.2949999,22.7609854 L13.2610452,22.7609854 L11.3482622,27.9786951 L10.1032556,27.9786951 L8.23574556,22.7609854 L8.20179085,22.7609854 L8.24706381,27.9786951 L6.56064571,27.9786951 L6.56064571,20.6105193 L9.09593198,20.6105193 L10.7710319,25.3415446 L10.8163048,25.3415446 L12.4234952,20.6105193 L15.0040545,20.6105193 L15.0040545,27.9786951 L13.2497269,27.9786951 Z M22.1005924,22.8741678 C22.1005924,23.304261 22.0213647,23.6664447 21.8629093,23.960719 C21.7044539,24.2549933 21.4894073,24.4926764 21.2177695,24.6737683 C20.9461317,24.8548602 20.6292209,24.9906791 20.2783554,25.0699068 C19.9274899,25.1491345 19.5539879,25.1944075 19.1691677,25.1944075 L18.2863448,25.1944075 L18.2863448,27.9786951 L16.5093807,27.9786951 L16.5093807,20.6105193 L19.2144407,20.6105193 C19.6218974,20.6105193 19.9953994,20.6557923 20.3462649,20.73502 C20.6971304,20.8142477 21.0027229,20.9387483 21.2630425,21.1198402 C21.5233621,21.3009321 21.7270905,21.5272969 21.8742276,21.8215712 C22.0213647,22.0932091 22.1005924,22.4553928 22.1005924,22.8741678 Z M20.3236284,22.885486 C20.3236284,22.7157124 20.2896737,22.5685753 20.2217642,22.4553928 C20.1538547,22.3422104 20.0633088,22.2629827 19.9388082,22.1950732 C19.8256257,22.1271638 19.6898068,22.0932091 19.5426697,22.0705726 C19.3955325,22.0479361 19.2370771,22.0366179 19.0786217,22.0366179 L18.297663,22.0366179 L18.297663,23.7796272 L19.044667,23.7796272 C19.2144406,23.7796272 19.372896,23.7683089 19.5200332,23.7343542 C19.6671703,23.7117177 19.8143075,23.6551265 19.9274899,23.587217 C20.0519906,23.5193076 20.1425365,23.4287616 20.210446,23.3155792 C20.2896737,23.2023968 20.3236284,23.0552597 20.3236284,22.885486 Z M28.4501264,27.8428762 C27.9747602,28.0579228 27.4201664,28.1711052 26.797663,28.1711052 C26.2317509,28.1711052 25.6997935,28.0805592 25.2244273,27.8881491 C24.7377429,27.695739 24.3189679,27.4354195 23.9681024,27.0958722 C23.6172369,26.7563249 23.3342809,26.33755 23.1305525,25.8621838 C22.9268241,25.3868176 22.82496,24.8548602 22.82496,24.2776298 C22.82496,23.6890812 22.9268241,23.1571238 23.1305525,22.6704394 C23.3342808,22.1950732 23.6172369,21.7876165 23.9794207,21.4480692 C24.3416044,21.1085219 24.7603794,20.8482024 25.2470638,20.6671105 C25.7337482,20.4860186 26.2543874,20.3954727 26.8202995,20.3954727 C27.3409386,20.3954727 27.8502595,20.4860186 28.3595805,20.6671105 C28.8575831,20.8482024 29.2650398,21.1198402 29.5819506,21.4707057 L28.3708987,22.6817577 C28.2011251,22.4553928 27.9860785,22.2856192 27.7144407,22.1724368 C27.4428028,22.0592544 27.171165,22.0026631 26.8768907,22.0026631 C26.5599799,22.0026631 26.2770238,22.0592543 26.0167043,22.1724368 C25.7563847,22.2856192 25.5300198,22.4440746 25.348928,22.6478029 C25.1565179,22.8515313 25.020699,23.0892144 24.9075165,23.3608522 C24.8056524,23.63249 24.7490611,23.9380825 24.7490612,24.2663116 C24.7490612,24.5945406 24.8056524,24.9001332 24.9075165,25.1830892 C25.0093807,25.4660453 25.1565179,25.7037284 25.3376098,25.8961385 C25.5187016,26.0885486 25.7450665,26.247004 25.9940678,26.3601864 C26.2543874,26.4733688 26.5373435,26.52996 26.842936,26.52996 C27.1938015,26.52996 27.5107123,26.4620506 27.7710319,26.3262317 C28.0313514,26.1904128 28.246398,26.0093209 28.4048534,25.7829561 L29.6385418,26.948735 C29.3329493,27.3335553 28.9368108,27.6278296 28.4501264,27.8428762 Z" id="形状"></path>
                    </g>
                </g>
            </g>
        </g>
    </g>
</svg>