<?xml version="1.0" encoding="UTF-8"?>
<svg width="34px" height="35px" viewBox="0 0 34 35" version="1.1" xmlns="http://www.w3.org/2000/svg" xmlns:xlink="http://www.w3.org/1999/xlink">
    <!-- Generator: Sketch 52.2 (67145) - http://www.bohemiancoding.com/sketch -->
    <title>icon-2-4</title>
    <desc>Created with Sketch.</desc>
    <g id="Page-1" stroke="none" stroke-width="1" fill="none" fill-rule="evenodd">
        <g id="blockchain-solutions1-wanxiang-blockchain-" transform="translate(-1146.000000, -842.000000)" fill="#00B7DE" fill-rule="nonzero">
            <g id="Group-4" transform="translate(400.000000, 791.000000)">
                <g id="Group-6" transform="translate(746.000000, 51.000000)">
                    <g id="icon-2-4">
                        <path d="M32.2406008,0 L1.75939921,0 C0.796110672,0 0.00483794466,0.791272727 0.00483794466,1.75456126 L0.00483794466,25.5271462 C0.00483794466,26.4904348 0.796110672,27.2817075 1.75939921,27.2817075 L13.5424822,27.2817075 L13.5424822,32.4421818 L10.2913834,32.4421818 C9.74987366,32.4421818 9.31089328,32.8811622 9.31089328,33.4226719 C9.31089328,33.9641817 9.74987366,34.4031621 10.2913834,34.4031621 L23.7258182,34.4031621 C24.2673279,34.4031621 24.7063083,33.9641817 24.7063083,33.4226719 C24.7063083,32.8811622 24.2673279,32.4421818 23.7258182,32.4421818 L20.4575178,32.4421818 L20.4575178,27.2817075 L32.2406008,27.2817075 C33.2038893,27.2817075 33.9951621,26.4904348 33.9951621,25.5271462 L33.9951621,1.75456126 C33.9951621,0.791272727 33.2038893,0 32.2406008,0 Z M18.479336,32.4249802 L15.520664,32.4249802 L15.520664,27.2645059 L18.479336,27.2645059 L18.479336,32.4249802 Z M32.0169802,25.3035257 L1.98301976,25.3035257 L1.98301976,1.97818182 L32.0169802,1.97818182 L32.0169802,25.3035257 Z" id="形状"></path>
                        <path d="M8.46801581,13.4860395 L10.8246324,11.1294229 C10.989821,10.9656924 11.0827465,10.7427492 11.0827465,10.510166 C11.0827465,10.2775828 10.989821,10.0546396 10.8246324,9.89090909 C10.6609019,9.72572052 10.4379587,9.63279499 10.2053755,9.63279499 C9.97279228,9.63279499 9.74984911,9.72572052 9.58611858,9.89090909 L6.62744664,12.849581 C6.45914995,13.0182714 6.36610731,13.2477766 6.36942292,13.4860395 C6.36942292,13.7096601 6.45543083,13.9504822 6.62744664,14.122498 L9.60332016,17.08117 C9.94735178,17.4252016 10.4978024,17.4252016 10.841834,17.08117 C11.0070226,16.9174394 11.0999481,16.6944963 11.0999481,16.461913 C11.0999481,16.2293298 11.0070226,16.0063867 10.841834,15.8426561 L8.46801581,13.4860395 Z M14.9358103,17.4940079 L14.7121897,17.3735968 C14.3039868,17.1369033 14.1589699,16.6178955 14.3853597,16.2038893 L17.8944822,10.0285217 C18.1311757,9.6203188 18.6501835,9.47530191 19.0641897,9.7016917 L19.2878103,9.82210277 C19.6960132,10.0587963 19.8410301,10.5778041 19.6146403,10.9918103 L16.1055178,17.1671779 C15.9955954,17.3675628 15.8095506,17.5151887 15.5894275,17.5766937 C15.3693044,17.6381987 15.1336826,17.6083914 14.9358103,17.4940079 Z M27.4241581,12.849581 L24.4482846,9.87370751 C24.2845541,9.70851894 24.0616109,9.61559341 23.8290277,9.61559341 C23.5964445,9.61559341 23.3735013,9.70851894 23.2097708,9.87370751 C23.0445822,10.037438 22.9516567,10.2603812 22.9516567,10.4929644 C22.9516567,10.7255476 23.0445822,10.9484908 23.2097708,11.1122213 L25.5663874,13.4688379 L23.2097708,15.8254545 C23.0445822,15.9891851 22.9516567,16.2121282 22.9516567,16.4447115 C22.9516567,16.6772947 23.0445822,16.9002378 23.2097708,17.0639684 C23.5538024,17.408 24.104253,17.408 24.4482846,17.0639684 L27.4241581,14.1052964 C27.5961739,13.9332806 27.6821818,13.7096601 27.6821818,13.4688379 C27.6902031,13.2347398 27.5960298,13.0087238 27.4241581,12.849581 Z" id="形状"></path>
                    </g>
                </g>
            </g>
        </g>
    </g>
</svg>