<?xml version="1.0" encoding="UTF-8"?>
<svg width="37px" height="50px" viewBox="0 0 37 50" version="1.1" xmlns="http://www.w3.org/2000/svg" xmlns:xlink="http://www.w3.org/1999/xlink">
    <!-- Generator: Sketch 52.2 (67145) - http://www.bohemiancoding.com/sketch -->
    <title>icon-kms-07</title>
    <desc>Created with Sketch.</desc>
    <g id="Page-1" stroke="none" stroke-width="1" fill="none" fill-rule="evenodd">
        <g id="kms-" transform="translate(-522.000000, -1093.000000)">
            <g id="Group-4-Copy-3" transform="translate(400.000000, 770.000000)">
                <g id="Group-5-Copy-5" transform="translate(30.000000, 323.000000)">
                    <g id="icon-kms-07" transform="translate(92.000000, 0.000000)">
                        <circle id="Oval" fill="#A0DFF9" cx="18.90625" cy="18" r="18"></circle>
                        <circle id="Oval-Copy-5" fill="#009AC9" cx="18.90625" cy="18" r="11"></circle>
                        <path d="M16.9520807,45.0315259 L32.7969735,45.0315259 L34.1778058,42.1437579 L34.0517024,31.6393443 C34.0517024,31.6141236 34.0264817,31.6141236 34.0264817,31.5889029 C33.7994956,31.0277427 33.4653216,30.4161412 32.9041614,30.4161412 C32.0592686,30.4161412 31.9079445,31.0025221 31.8827238,31.0781841 C31.8575032,31.5889029 31.5233291,31.9230769 30.9369483,31.9482976 L30.8108449,31.9482976 L30.6847415,31.8978562 C30.1740227,31.7213115 29.8650694,31.3366961 29.8398487,30.9520807 C29.814628,30.7755359 29.556116,28.8587642 28.5346784,28.7515763 C27.740227,28.6759142 27.1538462,30.2080706 27.0277427,30.6179067 L27.0277427,30.6431274 C26.851198,31.1538462 26.4665826,31.4123581 25.9054224,31.4123581 C25.4199243,31.4123581 25.0100883,30.9520807 25.0100883,30.3909206 C25.0100883,30.1639344 24.8839849,29.3947037 24.6002522,28.9848676 C24.4237074,28.8335435 24.1651955,28.7263556 23.887768,28.7263556 C23.4022699,28.7263556 23.0680958,28.9533417 22.8411097,29.4136192 C22.6393443,29.8234552 22.6393443,30.258512 22.6393443,30.258512 C22.6393443,30.8448928 22.2042875,31.2547289 21.6179067,31.2547289 C21.0315259,31.2547289 20.5964691,30.8196721 20.5964691,30.2332913 L20.5964691,22.5409836 C20.5964691,21.4186633 20.110971,20.8827238 19.0643127,20.8827238 C17.7087011,20.8827238 17.406053,21.778058 17.406053,22.5409836 L17.406053,39.4325347 C17.406053,39.8423707 17.2042875,40.2017654 16.8701135,40.3783102 L16.8196721,40.4287516 C16.6431274,40.5296343 16.3846154,40.5800757 16.1576293,40.5044136 C15.9810845,40.4539723 15.8486759,40.3530895 15.7477932,40.220681 L13.3013871,37.6418663 C12.7150063,37.0554855 12.2547289,36.7213115 11.8953342,36.6204288 C11.8448928,36.6204288 11.7944515,36.6456494 11.668348,36.7213115 L11.517024,36.7969735 C11.1071879,37.2320303 11.7440101,38.4300126 12.1286255,38.9155107 L16.9520807,45.0315259 Z M31.9079445,49.9873897 L17.5447667,49.9873897 C16.0630517,49.9873897 14.7326608,48.6822194 14.7326608,47.1752837 C14.7326608,46.9167718 14.7578815,46.7150063 14.8083228,46.5384615 L9.85245902,40.3530895 C8.5220681,38.5624212 7.96090794,36.1349306 9.72635561,34.6532156 L9.75157629,34.627995 C10.3883985,34.1424968 11.0819672,33.9407314 11.9520807,33.9407314 L12.1034048,33.9659521 C13.0491803,34.1424968 13.9949559,34.6784363 14.8650694,35.5989912 L14.8650694,22.667087 C14.8650694,21.0340479 16.0126103,18.4741488 19.0580076,18.4741488 C20.5145019,18.4741488 21.4602774,19.110971 21.9709962,19.6216898 C23.2257251,20.8764187 23.2509458,22.4842371 23.2509458,22.6607818 L23.2509458,26.519546 C23.4779319,26.4943253 23.7364439,26.4691047 24.0201765,26.4691047 C24.9155107,26.4691047 25.6784363,26.7528373 26.3215637,27.2635561 C27.0340479,26.6519546 27.8789407,26.3682219 28.8247163,26.4691047 C29.9722573,26.5699874 30.8928121,27.2131148 31.5359395,28.3858764 C31.9709962,28.2093317 32.406053,28.1273644 32.9167718,28.1273644 C35.703657,28.1273644 36.3404792,31.0151324 36.3404792,31.5510719 L36.4665826,42.8499369 L36.3404792,42.9760404 L36.2395965,43.1525851 L34.5498108,46.3745271 C34.6254729,46.6015132 34.7011349,46.8852459 34.7011349,47.1689786 C34.6948298,48.6822194 33.3896595,49.9873897 31.9079445,49.9873897 Z M17.7969735,47.074401 C17.6204288,47.074401 17.5384615,47.1500631 17.5384615,47.332913 C17.5384615,47.5094578 17.6141236,47.591425 17.7969735,47.591425 L32.1601513,47.591425 C32.2358134,47.591425 32.4186633,47.4653216 32.4186633,47.332913 C32.4186633,47.1563682 32.3430013,47.074401 32.1601513,47.074401 L17.7969735,47.074401 Z" id="Shape" fill="#443D4E" fill-rule="nonzero"></path>
                    </g>
                </g>
            </g>
        </g>
    </g>
</svg>