<?xml version="1.0" encoding="UTF-8"?>
<svg width="48px" height="50px" viewBox="0 0 48 50" version="1.1" xmlns="http://www.w3.org/2000/svg" xmlns:xlink="http://www.w3.org/1999/xlink">
    <!-- Generator: Sketch 52.2 (67145) - http://www.bohemiancoding.com/sketch -->
    <title>icon-2-1</title>
    <desc>Created with Sketch.</desc>
    <g id="Page-1" stroke="none" stroke-width="1" fill="none" fill-rule="evenodd">
        <g id="blockchain-solutions1-wanxiang-blockchain-" transform="translate(-526.000000, -437.000000)" fill-rule="nonzero">
            <g id="分组-2" transform="translate(0.000000, 303.000000)">
                <g id="1" transform="translate(450.000000, 134.000000)">
                    <g id="icon-2-1" transform="translate(76.000000, 0.000000)">
                        <g id="分布式缓存">
                            <path d="M4.80194322,14.097708 L4.80194322,18.3420528 C4.80194322,19.2226264 4.08809728,19.9364723 3.20752368,19.9364723 C2.32695009,19.9364723 1.61310415,19.2226264 1.61310415,18.3420528 L1.61310415,13.1601893 C1.61310415,12.5830095 1.92561037,12.0504734 2.42944692,11.7666666 L23.1569008,0.207125056 C23.6398925,-0.0607822244 24.2268738,-0.0607822244 24.7098655,0.207125056 L45.4373194,11.7666666 C45.9431939,12.0479785 46.2568749,12.5813583 46.256851,13.1601893 L46.256851,21.15142 C46.256851,22.0319936 45.5430051,22.7458395 44.6624315,22.7458395 C43.7818579,22.7458395 43.0680119,22.0319936 43.0680119,21.15142 L43.0680119,14.097708 L23.9349776,3.42466368 L4.80194322,14.097708 Z" id="路径" fill="#443D4E"></path>
                            <path d="M1.61310415,29.0756851 C0.363181226,28.3540418 -0.246208408,26.882845 0.12734167,25.4887372 C0.500891748,24.0946293 1.76423701,23.1252304 3.20752368,23.1252304 C4.65081035,23.1252304 5.91415562,24.0946293 6.2877057,25.4887372 C6.66125577,26.882845 6.05186614,28.3540418 4.80194322,29.0756851 L4.80194322,35.8711011 L23.9349776,46.5409567 L43.0680119,35.8711011 L43.0680119,31.6267563 C43.0680119,30.7461827 43.7818579,30.0323368 44.6624315,30.0323368 C45.5430051,30.0323368 46.256851,30.7461827 46.256851,31.6267563 L46.256851,36.8086198 C46.2561678,37.3864134 45.9441715,37.9190008 45.4405082,38.2021425 L24.7130543,49.7616841 C24.2300626,50.0295914 23.6430814,50.0295914 23.1600897,49.7616841 L2.43263576,38.2021425 C1.92676128,37.9208306 1.6130803,37.3874509 1.61310415,36.8086198 L1.61310415,29.0756851 Z" id="路径" fill="#443D4E"></path>
                            <path d="M44.7236005,26.4364723 C43.5623848,26.4366263 42.4893112,25.8172134 41.9086589,24.8115967 C41.3280066,23.80598 41.3280066,22.5669647 41.9086589,21.561348 C42.4893112,20.5557312 43.5623848,19.9363184 44.7236005,19.9364724 C46.5183577,19.9367103 47.9731696,21.3917152 47.9731696,23.1864723 C47.9731696,24.9812295 46.5183577,26.4362344 44.7236005,26.4364723 Z" id="路径" fill="#009AC9"></path>
                            <path d="M3.25043089,29.6 C2.08921511,29.6001539 1.0161416,28.9807411 0.435489256,27.9751244 C-0.145163085,26.9695077 -0.145163085,25.7304923 0.435489256,24.7248756 C1.0161416,23.7192589 2.08921511,23.0998461 3.25043089,23.1 C5.04518804,23.100238 6.5,24.5552428 6.5,26.35 C6.5,28.1447572 5.04518804,29.599762 3.25043089,29.6 Z" id="路径-copy" fill="#009AC9"></path>
                            <path d="M22.3405581,26.2471849 L22.3405581,33.6102142 L15.9628799,37.2933234 L9.58520179,33.6102142 L9.58520179,26.2471849 L15.9628799,22.5640757 L22.3405581,26.2471849 Z M30.3126557,12.6372197 L30.3126557,20.0002491 L23.9349776,23.6833582 L17.5572994,20.0034379 L17.5572994,12.6372197 L23.9349776,8.95411059 L30.3126557,12.6372197 Z M38.2847534,26.2471849 L38.2847534,33.6102142 L31.9070752,37.2933234 L25.5293971,33.6102142 L25.5293971,26.2471849 L31.9070752,22.5640757 L38.2847534,26.2471849 Z" id="形状" fill="#009AC9"></path>
                        </g>
                        <path d="M12.2740409,27.8015711 L15.9628799,25.673111 L19.651719,27.8015711 L19.651719,32.0622057 L15.9628799,34.1906658 L12.2740409,32.0622057 L12.2740409,27.8015711 Z" id="路径" stroke="#F5F7FA" fill="#A0DFF9"></path>
                        <path d="M20.2461385,14.191856 L23.9349776,12.059707 L27.6238166,14.191856 L27.6238166,18.4522405 L23.9349776,20.5807007 L20.2461385,18.4522405 L20.2461385,14.191856 Z" id="路径" stroke="#F5F7FA" fill="#A0DFF9"></path>
                        <path d="M28.2182362,27.8015711 L31.9070752,25.673111 L35.5959143,27.8015711 L35.5959143,32.0622057 L31.9070752,34.1906658 L28.2182362,32.0622057 L28.2182362,27.8015711 Z" id="路径" stroke="#F5F7FA" fill="#A0DFF9"></path>
                    </g>
                </g>
            </g>
        </g>
    </g>
</svg>