<?xml version="1.0" encoding="UTF-8"?>
<svg width="50px" height="45px" viewBox="0 0 50 45" version="1.1" xmlns="http://www.w3.org/2000/svg" xmlns:xlink="http://www.w3.org/1999/xlink">
    <!-- Generator: Sketch 52.2 (67145) - http://www.bohemiancoding.com/sketch -->
    <title>icon-kms-01</title>
    <desc>Created with Sketch.</desc>
    <g id="Page-1" stroke="none" stroke-width="1" fill="none" fill-rule="evenodd">
        <g id="kms-" transform="translate(-516.000000, -446.000000)">
            <g id="分组-2" transform="translate(0.000000, 310.000000)">
                <g id="Group-5" transform="translate(430.000000, 133.000000)">
                    <g id="icon-kms-01" transform="translate(86.000000, 3.000000)">
                        <path d="M13.2358785,0.5 L0.578019285,22.5421341 L13.2329883,44.1428571 L35.8741545,44.1428571 L48.5291236,22.5421341 L35.8712644,0.5 L13.2358785,0.5 Z" id="Rectangle" stroke="#F5F7FA" fill="#A0DFF9"></path>
                        <path d="M29.7708339,0.5 L25.5129825,15.2492978 L25.5129825,29.6785714 L25.4830858,29.8488737 L20.3536603,44.008164 L36.3197751,44.1404768 L48.9733496,22.5421341 L36.3154904,0.5 L29.7708339,0.5 Z" id="Rectangle-Copy-4" stroke="#F5F7FA" fill="#443D4E"></path>
                        <path d="M20.3422992,14.7857143 L15.7614598,22.50743 L20.339387,30.0714286 L28.5242494,30.0714286 L33.1021766,22.50743 L28.5213371,14.7857143 L20.3422992,14.7857143 Z" id="Rectangle-Copy-3" stroke="#F5F7FA" fill="#F5F7FA"></path>
                        <g id="Path-20" transform="translate(8.928571, 17.857143)" fill="#009AC9">
                            <path d="M4.4394037,2.43460425 C4.52334634,2.68725868 4.38798585,2.96090733 4.13735371,3.04512549 C3.88648242,3.12934362 3.61552229,2.99324325 3.53229711,2.7403475 C3.41846038,2.39768342 3.00998737,1.99734557 2.23202329,1.99734557 C1.58798477,1.99734557 1.20605774,2.43436295 1.16157533,2.86583012 C1.1070485,3.39671814 1.55498169,3.82818533 2.33007594,3.99179536 C3.88074274,4.31925675 4.33561137,5.3655888 4.25382111,6.16216215 C4.16844356,6.99565635 3.5363627,7.65444015 2.71032889,7.84121621 L2.71032891,8.44594594 C2.71032891,8.71235521 2.496048,8.92857143 2.23202329,8.92857143 C1.96799858,8.92857143 1.75371767,8.71235521 1.75371767,8.44594594 L1.75371767,7.85810809 C0.768408108,7.69811774 0.210942915,7.05550191 0.0248820119,6.49396716 C-0.0590606235,6.24131273 0.0762998608,5.96766408 0.326932,5.88344592 C0.577085846,5.79826251 0.848524266,5.93532816 0.931988608,6.18822391 C1.04582534,6.53088799 1.45429835,6.93122584 2.23226243,6.93122584 C2.87630094,6.93122584 3.25822798,6.49420846 3.30271038,6.06274129 C3.35723722,5.53185326 2.90930403,5.10038607 2.13420977,4.93677604 C0.583542972,4.60931466 0.12867434,3.5629826 0.2104646,2.76640926 C0.295842159,1.93291506 0.927923014,1.27413126 1.75395682,1.0873552 L1.75395682,0.482625492 C1.75395682,0.216216218 1.96823774,0 2.23226245,0 C2.49628715,0 2.71056807,0.216216218 2.71056807,0.482625492 L2.71056807,1.07046334 C3.69587763,1.23045367 4.25334282,1.87306949 4.4394037,2.43460425 Z" id="Path"></path>
                        </g>
                        <rect id="Rectangle" fill="#009AC9" x="20.5357143" y="19.6428571" width="8.03571429" height="1.78571429"></rect>
                        <rect id="Rectangle-Copy-5" fill="#009AC9" x="20.5357143" y="23.2142857" width="8.03571429" height="1.78571429"></rect>
                        <g id="key" transform="translate(33.035714, 17.857143)">
                            <rect id="Rectangle" fill="#000000" opacity="0" x="0.284457892" y="0" width="9.82142857" height="9.82142857"></rect>
                            <path d="M4.41392218,9.82142857 C4.33579718,9.82142857 4.25767218,9.78050595 4.21860968,9.78050595 C4.10142217,9.69866071 4.02329718,9.53497023 4.02329718,9.41220238 L4.02329718,4.86979166 C2.92954717,4.66517857 2.07017218,3.68303571 2.07017218,2.45535714 C2.07017218,1.06398809 3.12485968,0 4.41392218,0 L5.97642218,0 C7.26548468,0 8.32017218,1.10491071 8.32017218,2.45535714 C8.32017218,3.68303571 7.46079717,4.70610119 6.36704718,4.91071429 L6.36704718,8.59375 C6.36704718,8.75744048 6.28892218,8.88020834 6.13267218,8.96205357 L4.57017217,9.78050595 C4.53110968,9.82142857 4.49204718,9.82142857 4.41392218,9.82142857 Z M4.41392218,0.818452378 C3.55454718,0.818452378 2.85142218,1.55505952 2.85142218,2.45535714 C2.85142218,3.39657738 3.55454718,4.09226191 4.41392218,4.09226191 C4.64829718,4.09226191 4.80454718,4.25595239 4.80454718,4.5014881 L4.80454718,8.75744048 L5.58579718,8.34821429 L5.58579718,4.50148809 C5.58579718,4.25595238 5.74204718,4.0922619 5.97642218,4.0922619 C6.83579719,4.0922619 7.53892219,3.35565476 7.53892219,2.45535713 C7.53892219,1.5141369 6.83579719,0.818452368 5.97642218,0.818452368 L4.41392218,0.818452378 Z M5.58579718,2.45535714 L4.80454718,2.45535714 C4.57017218,2.45535714 4.41392218,2.29166666 4.41392218,2.04613095 C4.41392218,1.80059523 4.57017218,1.63690476 4.80454718,1.63690476 L5.58579718,1.63690476 C5.82017218,1.63690476 5.97642218,1.80059523 5.97642218,2.04613095 C5.97642218,2.29166666 5.82017218,2.45535714 5.58579718,2.45535714 Z" id="Shape" fill="#009AC9" fill-rule="nonzero"></path>
                        </g>
                    </g>
                </g>
            </g>
        </g>
    </g>
</svg>