<?xml version="1.0" encoding="UTF-8"?>
<svg width="50px" height="38px" viewBox="0 0 50 38" version="1.1" xmlns="http://www.w3.org/2000/svg" xmlns:xlink="http://www.w3.org/1999/xlink">
    <!-- Generator: Sketch 52.2 (67145) - http://www.bohemiancoding.com/sketch -->
    <title>icon-3-1</title>
    <desc>Created with Sketch.</desc>
    <g id="Page-1" stroke="none" stroke-width="1" fill="none" fill-rule="evenodd">
        <g id="Consulting-Service" transform="translate(-535.000000, -443.000000)" fill-rule="nonzero">
            <g id="分组-2" transform="translate(0.000000, 303.000000)">
                <g id="1" transform="translate(450.000000, 140.000000)">
                    <g id="icon-3-1" transform="translate(85.000000, 0.000000)">
                        <path d="M41.3346341,20.5195518 C43.8321951,18.77805 45.5804878,15.6969313 45.5804878,12.2139276 C45.5804878,6.72149868 41.4595122,2.16680153 36.2146341,2.16680153 C35.4653659,2.16680153 34.9658537,2.70264825 34.9658537,3.50641834 C34.9658537,4.31018842 35.4653659,4.84603514 36.2146341,4.84603514 C39.9609756,4.84603514 43.0829268,8.06111548 43.0829268,12.2139276 C43.0829268,16.232778 40.0858537,19.58182 36.2146341,19.58182 C35.4653659,19.58182 34.9658537,20.1176668 34.9658537,20.9214368 C34.9658537,21.7252069 35.4653659,22.2610537 36.2146341,22.2610537 C42.4585366,22.2610537 47.4536585,27.7534826 47.4536585,34.3176049 C47.4536585,35.121375 47.9531707,35.6572217 48.702439,35.6572217 C49.4517073,35.6572217 49.9512195,35.121375 49.9512195,34.3176049 C50.0760976,28.0214059 46.4546341,22.7969004 41.3346341,20.5195518 Z M15.1102439,20.9214368 C15.1102439,20.1176668 14.6107317,19.58182 13.8614634,19.58182 C10.115122,19.58182 6.99317073,16.3667397 6.99317073,12.2139276 C6.99317073,8.19507717 9.9902439,4.84603514 13.8614634,4.84603514 C14.6107317,4.84603514 15.1102439,4.31018842 15.1102439,3.50641834 C15.1102439,2.70264825 14.6107317,2.16680153 13.8614634,2.16680153 C8.74146341,2.16680153 4.49560976,6.587537 4.49560976,12.2139276 C4.49560976,15.6969313 6.24390244,18.77805 8.74146341,20.5195518 C3.62146341,22.6629387 0,28.0214059 0,34.1836432 C0,34.9874133 0.499512195,35.5232601 1.24878049,35.5232601 C1.99804878,35.5232601 2.49756098,34.9874133 2.49756098,34.1836432 C2.49756098,27.4855592 7.61756098,22.127092 13.7365854,22.127092 C14.6107317,22.2610537 15.1102439,21.5912452 15.1102439,20.9214368 Z" id="形状" fill="#443D4E"></path>
                        <path d="M20.9106445,23.0877993 C23.7167969,22.0057256 27.8399642,22.4280889 29.5882568,23.0877993 C29.3385007,24.0868237 28.617561,25.5643812 27.7434146,26.1887714 C28.3678049,27.9370641 29.2419512,31.4336495 28.4926829,36.1790153 C28.3678049,36.8034056 27.8682927,37.1780397 27.2439024,37.1780397 L26.9941463,37.1780397 C26.3697561,37.0531617 25.8702439,36.3038934 25.995122,35.6795031 C26.7443902,31.4336495 25.8702439,28.3116983 25.3707317,26.9380397 L25.1209756,26.9380397 C24.6214634,28.1868202 23.7473171,31.4336495 24.4965854,35.6795031 C24.6214634,36.4287714 24.1219512,37.0531617 23.497561,37.1780397 L23.2478049,37.1780397 C22.6234146,37.1780397 22.1239024,36.8034056 21.9990244,36.1790153 C21.2497561,31.4336495 22.1239024,27.8121861 22.7482927,26.1887714 C21.8741463,25.5643812 21.1604006,24.2117018 20.9106445,23.0877993 Z M25.1209756,24.4404788 C25.995122,24.4404788 26.7443902,23.8160885 26.8692683,22.9419422 C26.3697561,22.8170641 25.7453659,22.8170641 25.1209756,22.8170641 C24.4965854,22.8170641 23.9970732,22.8170641 23.3726829,22.9419422 C23.497561,23.8160885 24.2468293,24.4404788 25.1209756,24.4404788 Z" id="形状-copy" fill="#A0DFF9"></path>
                        <path d="M30.4702439,20.9214368 C36.4643902,23.3327471 40.7102439,29.3610227 40.835122,36.5949535 C40.835122,37.3987236 40.3356098,37.9345703 39.5863415,37.9345703 C38.8370732,37.9345703 38.337561,37.3987236 38.337561,36.5949535 C38.337561,30.4327162 34.5912195,25.2082106 29.4712195,23.3327471 C27.8266602,22.9498524 22.1428223,22.9498524 20.9795122,23.3327471 C15.8595122,25.2082106 12.1131707,30.4327162 12.1131707,36.5949535 C12.1131707,37.3987236 11.6136585,37.9345703 10.8643902,37.9345703 C10.115122,37.9345703 9.61560976,37.3987236 9.61560976,36.5949535 C9.61560976,29.3610227 13.8614634,23.3327471 19.7307317,20.9214368 C16.6087805,18.9120116 14.6107317,15.2950463 14.6107317,11.2761958 C14.6107317,5.11395851 19.3560976,0.0234146341 25.1004878,0.0234146341 C30.844878,0.0234146341 35.5902439,5.11395851 35.5902439,11.2761958 C35.5902439,15.4290079 33.4673171,18.9120116 30.4702439,20.9214368 Z M17.1082927,11.2761958 C17.1082927,16.0988163 20.7297561,19.8497434 25.1004878,19.8497434 C29.4712195,19.8497434 33.0926829,15.9648547 33.0926829,11.2761958 C33.0926829,6.587537 29.4712195,2.70264825 25.1004878,2.70264825 C20.7297561,2.70264825 17.1082927,6.587537 17.1082927,11.2761958 Z" id="形状" fill="#009AC9"></path>
                    </g>
                </g>
            </g>
        </g>
    </g>
</svg>