<?xml version="1.0" encoding="UTF-8"?>
<svg width="44px" height="50px" viewBox="0 0 44 50" version="1.1" xmlns="http://www.w3.org/2000/svg" xmlns:xlink="http://www.w3.org/1999/xlink">
    <!-- Generator: Sketch 52.2 (67145) - http://www.bohemiancoding.com/sketch -->
    <title>icon-kms-04</title>
    <desc>Created with Sketch.</desc>
    <g id="Page-1" stroke="none" stroke-width="1" fill="none" fill-rule="evenodd">
        <g id="kms-" transform="translate(-519.000000, -862.000000)">
            <g id="Group-4-Copy-3" transform="translate(400.000000, 770.000000)">
                <g id="Group-5" transform="translate(10.000000, 92.000000)">
                    <g id="icon-kms-04" transform="translate(109.000000, 0.000000)">
                        <path d="M43.7629438,13.454142 C43.733358,11.0576923 43.7037722,8.45414201 43.7037722,5.58431953 C43.7037722,4.87426036 43.2303994,4.25295858 42.549926,4.04585799 C35.9522929,2.06360947 30.0351331,0.909763314 22.1948964,0.0221893491 L21.9286243,0.0221893491 C17.9345414,0.229289941 14.2363166,0.732248521 10.8635355,1.50147929 C7.49075444,2.27071006 4.26590237,3.12869822 1.27773669,4.04585799 C0.597263314,4.25295858 0.123890533,4.87426036 0.123890533,5.58431953 C0.123890533,8.15828402 0.0943047337,10.5251479 0.0647189349,12.7440828 C-0.142381657,31.4423077 -0.231139053,38.4245562 18.1120562,48.5724852 C19.620932,49.4008876 20.7747781,49.7559172 21.9877959,49.7559172 C23.1712278,49.7559172 24.3546598,49.4008876 25.8339497,48.602071 C44.1179734,38.7204142 44.029216,32.862426 43.7629438,13.454142 Z" id="Path" fill="#009AC9" fill-rule="nonzero"></path>
                        <path d="M24.2954882,45.7322485 C23.3191568,46.2647929 22.6090976,46.5014793 21.9877959,46.5014793 C21.3664941,46.5014793 20.6860207,46.2647929 19.6801036,45.7026627 C3.05288462,36.5014793 3.11205621,31.4718935 3.3191568,12.7736686 C3.3487426,10.9097633 3.3487426,8.92751479 3.3783284,6.79733728 C5.9522929,6.02810651 8.70377219,5.31804734 11.5735947,4.66715976 C14.7096893,3.95710059 18.2008136,3.48372781 21.9582101,3.27662722 C29.0883876,4.07544379 34.5321746,5.11094675 40.4493343,6.82692308 C40.4493343,9.22337278 40.4789201,11.4423077 40.5085059,13.5133136 C40.7747781,32.3298817 40.8339497,36.7973373 24.2954882,45.7322485 Z" id="Path" fill="#A0DFF9" fill-rule="nonzero"></path>
                        <path d="M7.7367045,33.6847934 L14.4579637,27.2228645 L19.7860505,32.0959609 C20.333748,32.598499 21.2058101,32.5883467 21.7428727,32.0756563 L32.5160302,21.7913924 C32.8740539,20.40071 32.9500501,19.5757903 32.7440187,19.3166335 C32.5379873,19.0574766 31.8593466,19.124359 30.7080966,19.5172807 L20.7325569,29.0350472 L15.5055017,24.2583974 C14.9524867,23.7558594 14.0804246,23.7660117 13.5433619,24.2837782 L5.48316839,32.0756563 C5.48316839,32.0756563 7.7367045,33.6813333 7.7367045,33.6847934 Z" id="Path-Copy" fill="#443D4E" transform="translate(19.170036, 26.423466) rotate(-10.000000) translate(-19.170036, -26.423466) "></path>
                        <path d="M31.6562139,20.0552042 L31.6562139,24.9181484 C31.6562139,25.6998743 32.3208954,26.3343921 33.139783,26.3343921 C33.9586706,26.3343921 34.6233521,25.6998743 34.6233521,24.9181484 L34.6233521,16.4257626 C34.6233521,16.0196712 34.4372413,15.6592651 34.1500988,15.4003819 C33.8789088,15.1262702 33.5013697,14.9486053 33.0759736,14.9486053 L24.185194,14.9486053 C23.3663064,14.9486053 22.701625,15.583123 22.701625,16.3648489 C22.701625,17.1465748 23.3663064,17.7810926 24.185194,17.7810926 L29.8482803,17.7810926 C30.8484327,17.7227233 31.4570238,17.8300344 31.6740536,18.1030257 C31.8910835,18.376017 31.8851369,19.0267432 31.6562139,20.0552042 Z" id="Path" fill="#443D4E" transform="translate(28.662489, 20.641499) rotate(-10.000000) translate(-28.662489, -20.641499) "></path>
                    </g>
                </g>
            </g>
        </g>
    </g>
</svg>