<?xml version="1.0" encoding="UTF-8"?>
<svg width="49px" height="50px" viewBox="0 0 49 50" version="1.1" xmlns="http://www.w3.org/2000/svg" xmlns:xlink="http://www.w3.org/1999/xlink">
    <!-- Generator: Sketch 52.2 (67145) - http://www.bohemiancoding.com/sketch -->
    <title>icon-2-2</title>
    <desc>Created with Sketch.</desc>
    <g id="Page-1" stroke="none" stroke-width="1" fill="none" fill-rule="evenodd">
        <g id="blockchain-solutions1-wanxiang-blockchain-" transform="translate(-935.000000, -437.000000)" fill-rule="nonzero">
            <g id="分组-2" transform="translate(0.000000, 303.000000)">
                <g id="2" transform="translate(850.000000, 134.000000)">
                    <g id="icon-2-2" transform="translate(85.000000, 0.000000)">
                        <path d="M3.35629517,29.3636364 C3.90174971,29.2727273 4.26538608,29 4.62902246,28.7272727 C4.99265884,28.3636363 5.174477,28 5.08356792,27.5454545 L5.08356792,27.1818182 C5.08356792,20.1818182 8.99265884,13.7272727 15.0835679,10.2727273 C15.5381134,10 15.7199315,9.63636367 15.9017497,9.27272729 C15.9926588,8.81818184 15.9926588,8.36363638 15.7199315,8 C15.4472042,7.54545454 15.174477,7.27272729 14.7199315,7.18181816 C14.174477,7 13.8108406,7.09090908 13.3562952,7.36363638 C6.08356792,11.4545455 1.62902246,19.0909091 1.62902246,27.2727273 L1.62902246,28 C1.71993154,28.7272727 2.4472043,29.3636364 3.35629517,29.3636364 Z M33.8108406,10.3636364 C39.9926588,13.8181818 43.9017497,20.2727273 43.9017497,27.2727273 L43.9017497,27.5454545 C43.8108406,28 43.9017497,28.3636364 44.174477,28.6363636 C44.5381134,29.0909091 44.9017497,29.3636363 45.5381133,29.3636364 L45.7199315,29.3636364 C46.5381134,29.3636364 47.2653861,28.7272728 47.3562952,27.8181818 L47.3562952,27.1818182 C47.3562952,19 42.9017497,11.3636363 35.6290225,7.36363638 C35.174477,7.09090908 34.8108406,7.09090908 34.2653861,7.18181816 C33.8108406,7.27272725 33.5381134,7.63636362 33.174477,8 C32.9017497,8.45454546 32.8108406,8.90909092 32.9926588,9.27272729 C33.174477,9.81818184 33.4472042,10.1818182 33.8108406,10.3636364 Z M35.174477,43.5454545 L34.7199315,43.5454545 L34.2653861,43.7272727 C28.2653861,47.1818182 20.3562952,47.1818182 14.3562952,43.7272727 L14.174477,43.6363636 L13.6290225,43.6363636 C12.6290225,43.6363636 11.9926588,44.3636363 11.9926588,45.3636364 C11.9926588,46 12.2653861,46.4545455 12.8108406,46.9090909 C16.2653861,48.9090909 20.2653861,50 24.4472042,50 C28.5381133,50 32.6290224,48.9090909 36.0835679,46.8181818 C36.9017498,46.1818182 37.0835679,45.7272728 37.0835679,45.2727273 C36.9017498,44.3636364 36.174477,43.5454546 35.174477,43.5454545 Z" id="形状" fill="#443D4E"></path>
                        <path d="M48.8108406,36.1818182 C49.174477,37.8181818 49.174477,39.0909091 47.9926588,41.0909091 C46.9017497,42.8181818 45.4472042,43.7272727 43.5381133,44 C43.3562952,44.0909091 43.0835679,44.0909091 42.8108406,44.0909091 C41.4472043,44.0909091 39.9926588,43.7272727 39.0835679,43.0909091 C36.8108406,41.5454545 35.7199315,38.9090909 36.2653861,36.3636364 L36.2653861,36.2727273 L31.174477,33.3636364 L31.0835679,33.4545455 C29.2653861,35.5454545 26.8108406,36.6363636 24.0835679,36.6363636 C21.5381134,36.6363636 18.9017497,35.4545455 17.174477,33.4545455 L17.0835679,33.3636364 L11.9926588,36.2727273 L11.9926588,36.3636364 C12.7199315,39.1818182 11.5381134,41.9090909 9.174477,43.1818182 C8.62902246,43.3636364 7.53811338,43.9090909 6.08356792,43.9090909 C3.71993154,43.9090909 1.62902246,42.7272727 0.719931543,40.7272727 C-0.098250293,39.3636364 -0.098250293,37.6363636 0.265386084,36 C0.629022461,34.3636364 1.62902246,33 3.08356792,32.2727273 C3.71993154,32 4.90174971,31.5454545 6.174477,31.5454545 C7.62902241,31.5454545 9.26538608,32.1818182 10.4472042,33.1818182 L10.5381133,33.2727273 L15.7199315,30.2727273 L15.7199315,30.1818182 C15.3562952,29.2727272 15.174477,28.2727272 15.174477,27.1818182 C15.174477,22.8181818 18.2653861,19 22.6290225,18.1818182 L22.8108406,18.1818182 L22.8108406,12.2727273 L22.7199315,12.2727273 C19.9926588,11.3636364 18.2653861,9 18.2653861,6.27272729 C18.2653861,2.81818184 20.9926588,0 24.4472042,0 C27.9017497,0 30.6290225,2.81818184 30.8108406,6.18181816 C30.8108406,9 28.9926588,11.4545455 26.3562952,12.1818182 L26.2653861,12.1818182 L26.2653861,18.2727273 L26.3562952,18.2727273 C30.7199315,19.1818182 33.8108406,22.9090909 33.8108406,27.2727273 C33.8108406,28.1818182 33.6290225,29.1818182 33.2653861,30.2727273 L33.2653861,30.3636364 L38.4472042,33.3636364 L38.5381133,33.2727273 C39.7199315,32.1818182 41.174477,31.5454545 42.8108406,31.5454545 C43.6290224,31.5454546 44.8108406,31.5454546 45.9017497,32.2727273 C47.3562952,33.0909091 48.4472042,34.5454545 48.8108406,36.1818182 Z M21.5381133,6.27272729 C21.5381133,7.72727271 22.8108406,9.09090903 24.3562952,9.09090908 C25.9017497,9.09090913 27.174477,7.81818184 27.174477,6.27272729 C27.174477,4.72727271 25.9017497,3.45454546 24.3562952,3.45454546 C22.8108406,3.45454546 21.5381133,4.72727275 21.5381133,6.27272729 Z M45.2653861,39 C45.9017498,37.6363637 45.7199315,36.2727273 44.6290225,35.3636364 C44.0835679,34.8181818 43.5381133,34.7272727 42.9926588,34.7272727 L42.7199315,34.7272727 C41.8108406,34.8181818 40.9017497,35.3636364 40.3562952,36.2727273 C39.9017497,36.8181818 39.8108406,37.4545455 39.9926588,38.0909091 C40.174477,38.9090909 40.7199315,39.4545455 41.3562952,39.9090909 C41.8108406,40.2727273 42.4472042,40.3636364 42.9926588,40.3636364 C43.9017497,40.3636364 44.7199315,39.9090909 45.2653861,39 Z M8.90174971,38.3636364 C8.99265879,37.7272727 8.99265879,36.9090909 8.44720425,36.1818182 C7.99265879,35.3636363 6.99265879,34.7272727 5.99265879,34.7272727 C5.4472043,34.7272727 5.08356792,34.9090909 4.62902246,35.1818182 C3.90174971,35.6363636 3.44720425,36.1818182 3.26538608,36.9090909 C3.08356792,37.6363636 3.26538608,38.3636364 3.62902246,39 C4.08356792,39.8181818 5.08356792,40.4545455 6.08356792,40.4545455 C6.71993149,40.4545455 7.08356787,40.3636364 7.53811333,40 C8.174477,39.6363637 8.71993154,39.0909091 8.90174971,38.3636364 Z" id="形状" fill="#009AC9"></path>
                        <path d="M24.5,33.7846153 C21,33.7846153 18,30.9879807 18,27.3923076 C18,23.7966346 20.9,20.9999999 24.5,21 C28,21 31,23.7966346 31,27.3923076 C30.9,30.8881009 28.1,33.7846153 24.5,33.7846153 Z" id="路径" fill="#A0DFF9"></path>
                    </g>
                </g>
            </g>
        </g>
    </g>
</svg>