<?xml version="1.0" encoding="UTF-8"?>
<svg width="49px" height="50px" viewBox="0 0 49 50" version="1.1" xmlns="http://www.w3.org/2000/svg" xmlns:xlink="http://www.w3.org/1999/xlink">
    <!-- Generator: Sketch 52.2 (67145) - http://www.bohemiancoding.com/sketch -->
    <title>icon-kms-02</title>
    <desc>Created with Sketch.</desc>
    <g id="Page-1" stroke="none" stroke-width="1" fill="none" fill-rule="evenodd">
        <g id="kms-" transform="translate(-939.000000, -445.000000)">
            <g id="分组-2" transform="translate(0.000000, 310.000000)">
                <g id="Group-5-Copy" transform="translate(850.000000, 135.000000)">
                    <g id="icon-kms-02" transform="translate(88.000000, 0.000000)">
                        <g id="用户">
                            <rect id="Rectangle" fill="#000000" opacity="0" x="0" y="0" width="46.7391304" height="46.7391304"></rect>
                            <path d="M45.1887859,37.4112861 C45.3463379,37.8744994 45.4668187,38.4739519 45.5409608,39.200561 C45.6151029,39.9271701 45.6521739,39.3458828 45.6521739,40.0724919 C45.6521739,40.799101 45.5965674,41.4893797 45.494622,42.1433278 C45.3834089,42.797276 45.2165892,43.2877372 45.0034307,43.6237939 C44.8458787,43.8417766 44.3917585,44.068842 43.6503377,44.3231552 C42.9089168,44.5774683 35.1703371,46.7391304 24.2899866,46.7391304 C14.3456799,46.7391304 5.78226941,45.1587556 4.41990863,44.8590294 C3.0575479,44.5593031 2.24198498,44.3049899 1.9546844,44.0960898 C1.60250952,43.8417766 1.34301224,43.0879197 1.17619252,41.8254363 C1.00937284,40.5538704 1.07424714,40.2359789 1.38935102,38.2559691 C1.583974,37.1115598 2.05662973,36.2396289 2.80731831,35.6583416 C3.56727467,35.0679717 4.46624741,34.6047584 5.485701,34.2687017 C6.51442238,33.9235624 11.2780512,32.3159397 12.3716468,32.0343787 C13.4652426,31.7528177 14.4198218,31.3531827 15.2353847,30.8263911 C15.9026634,30.4267561 16.4123903,30.0362037 16.7738329,29.6638165 C17.1352756,29.2914293 17.3947729,28.9190422 17.5337893,28.546655 C17.6728057,28.1742679 17.7469478,27.7927981 17.7469478,27.3840805 C17.7469478,26.9844455 17.7284123,26.54848 17.700609,26.0761841 C17.6357346,25.3314097 17.3947729,24.7592051 16.9684559,24.3595701 C16.5421389,23.9599351 16.0694832,23.5421348 15.5226853,23.1061694 C15.263188,22.8881866 15.0500295,22.5884604 14.8554066,22.197908 C14.6607836,21.8073556 14.4939639,21.4168032 14.336412,21.0171682 C14.1788601,20.5539549 14.0213082,20.0725763 13.8637563,19.5821152 C13.64133,19.5185369 13.4189038,19.4186282 13.1964775,19.2551411 C13.0018546,19.1007367 12.7979638,18.8827539 12.5755376,18.6011929 C12.3531114,18.3196319 12.1677562,17.9199969 12.0009365,17.3932053 C11.8433845,16.8754963 11.787778,16.3941178 11.8433845,15.9763176 C11.8897234,15.5585174 11.9731332,15.1952128 12.1028818,14.8864039 C12.2233627,14.5412646 12.4179857,14.2233731 12.6774829,13.9054816 C12.6496796,12.7338245 12.7052862,11.5530847 12.8721059,10.3723449 C12.9925868,9.38233997 13.2242808,8.32875676 13.5579202,7.21159528 C13.8915595,6.0944338 14.3734831,5.08626364 15.0036907,4.19616752 C15.6060952,3.36056703 16.2733739,2.67028841 17.0147947,2.1253316 C17.7562156,1.58037479 18.5069041,1.15349193 19.2668605,0.844683076 C20.0268168,0.535874218 20.7867731,0.326974085 21.565265,0.190734906 C22.3344891,0.0726609078 23.0851777,0 23.8173307,0 C24.7255713,0 25.6152762,0.108991362 26.4493746,0.326974085 C27.2834731,0.544956808 28.0619649,0.817435213 28.794118,1.16257457 C29.5170033,1.50771388 30.1750142,1.88010106 30.7310799,2.29790128 C31.305681,2.7157015 31.7598012,3.14258435 32.1119761,3.5785498 C32.8997357,4.56855469 33.4928724,5.65846835 33.8913861,6.84829074 C34.2898998,8.03811313 34.5679326,9.15527465 34.7162167,10.2088578 C34.9108397,11.4440933 34.9849818,12.6884114 34.9571785,13.9236468 C35.1796047,14.0417208 35.3556922,14.2324557 35.476173,14.4867689 C35.596654,14.7047516 35.7078671,14.97723 35.7820092,15.3223694 C35.8561512,15.6675087 35.865419,16.0762263 35.8005447,16.5757701 C35.7078671,17.2297182 35.5503151,17.7383446 35.3556922,18.128897 C35.1425337,18.5194494 34.9201075,18.8191757 34.669878,19.0371584 C34.3825774,19.2914716 34.0860091,19.4549587 33.7709052,19.5457848 C33.6504243,20.0362459 33.5021402,20.5267071 33.3445883,20.9808378 C33.1870363,21.3804728 33.0016811,21.7801078 32.8070582,22.1615776 C32.5938997,22.55213 32.3714735,22.8518562 32.121244,23.0698389 C31.8339434,23.3241521 31.5744461,23.5239696 31.3149488,23.6965393 C31.0554515,23.8600263 30.842293,24.0416786 30.6476701,24.2233309 C30.4530471,24.4140658 30.2954952,24.6320485 30.1750143,24.8954443 C30.0545334,25.1588401 29.9525881,25.4767315 29.8877137,25.8491187 C29.7950361,26.312332 29.7672328,26.7846279 29.7950361,27.2660065 C29.8228394,27.7383024 29.9525881,28.2287635 30.1750143,28.7010594 C30.3974406,29.1733553 30.7588832,29.6365687 31.26861,30.0725341 C31.7690691,30.5084995 32.4548834,30.8899694 33.3075173,31.2351087 C34.0952769,31.5439175 34.9664464,31.8163959 35.8932224,32.0434613 C36.8292661,32.2796092 40.582709,33.859984 41.4446107,34.1869582 C42.3065124,34.5139322 43.0850043,34.9226499 43.7615508,35.413111 C44.4195618,35.9580679 44.9014853,36.6029334 45.1887859,37.4112861 Z" id="Path" fill="#443D4E" fill-rule="nonzero"></path>
                            <path d="M24.1324347,43.7237026 C24.2899867,43.7237026 24.5309484,43.6237939 24.8645878,43.4239764 C25.1982271,43.2150762 25.5225988,42.9880109 25.8377026,42.7064499 C26.1528064,42.4248888 26.4308392,42.1433278 26.6625332,41.8708494 C26.903495,41.5892883 27.0147081,41.3803883 27.0147081,41.2169012 C27.0147081,41.0261663 26.9683693,40.7082749 26.8756917,40.2359789 C26.7830141,39.7727656 26.6625332,39.2550566 26.5420523,38.7100998 C26.4215714,38.1469778 26.2825551,37.6020209 26.1620742,37.0570641 C26.0415933,36.5121073 25.9211124,36.0761418 25.8284348,35.7310025 C26.1435386,35.4766893 26.4123037,35.2132935 26.6347299,34.9226499 C26.8571562,34.6229236 26.9683693,34.3231974 26.9683693,34.0143885 C26.9683693,33.7600753 26.8849594,33.5148447 26.708872,33.2514489 C26.5420523,32.9880531 26.3381616,32.7700704 26.1157354,32.5793355 C25.8562381,32.3613528 25.5967408,32.1433701 25.3094402,31.9253873 L22.9461614,31.9253873 C22.6310576,32.1433701 22.3622925,32.3613528 22.1398663,32.5793355 C21.9452433,32.7700704 21.7784236,32.9789705 21.6208717,33.2332837 C21.4633198,33.4875969 21.3799099,33.7237448 21.3799099,33.978058 C21.3799099,34.1687929 21.4911231,34.4140235 21.7320848,34.7228324 C21.9730466,35.0316412 22.2603472,35.3313675 22.6032543,35.6038459 C22.5105767,35.8854069 22.3808281,36.2850419 22.2232761,36.8118335 C22.0657242,37.3295425 21.91744,37.883582 21.7784236,38.4648692 C21.6394072,39.0370739 21.5096586,39.5820307 21.3984455,40.0906571 C21.2872323,40.5992835 21.2408935,40.9716706 21.2408935,41.2259838 C21.2408935,41.3803883 21.3521066,41.598371 21.5930684,41.879932 C21.8340302,42.161493 22.112063,42.443054 22.4457024,42.7155325 C22.7793417,42.9970935 23.1037133,43.2332415 23.4188172,43.4330589 C23.7431888,43.6147113 23.9841506,43.7237026 24.1324347,43.7237026 Z" id="Path" fill="#FFFFFF" fill-rule="nonzero"></path>
                            <path d="M49.2308218,36.4091628 C48.7380915,35.2442531 48.0327986,34.1981871 47.1345277,33.2999586 C46.2363016,32.40173 45.1902049,31.6965104 44.0250991,31.2037933 C42.8185833,30.6935543 41.537359,30.4347826 40.2178395,30.4347826 C38.8974236,30.4347826 37.6161994,30.6935543 36.4096163,31.2037933 C35.2446001,31.6965104 34.1984586,32.4017301 33.3001653,33.2999586 C32.401984,34.1981871 31.6966239,35.2442307 31.2038264,36.4091628 C30.6935506,37.6155916 30.4347826,38.8968354 30.4347826,40.2176266 C30.4347826,41.5379472 30.6935506,42.819191 31.2038264,44.0256198 C31.6966015,45.1905295 32.401984,46.2366852 33.3001653,47.1348241 C34.1984586,48.0330526 35.2446001,48.7382946 36.4096163,49.2309893 C37.6162218,49.7413403 38.897446,50 40.2178395,50 C41.537359,50 42.8185833,49.7413179 44.0251887,49.2309893 C45.1902049,48.7382722 46.236324,48.0330525 47.1345277,47.1348241 C48.0327986,46.2366852 48.7380915,45.1905295 49.2308218,44.0256198 C49.741232,42.819191 50,41.5379472 50,40.2176266 C49.9998879,38.896813 49.741232,37.6156812 49.2308218,36.4091628 Z" id="Path" fill="#A0DFF9" fill-rule="nonzero"></path>
                            <path d="M44.2576945,44.3569659 C44.2575152,44.35719 44.2574032,44.3572796 44.2572015,44.3574589 C43.9856161,44.6290695 43.5451638,44.6293608 43.2732647,44.3578846 L40.1326889,41.2234955 L36.9980737,44.3638223 C36.997872,44.3640463 36.9976703,44.364248 36.9975807,44.3643152 C36.7259953,44.6359482 36.2856326,44.6361947 36.0136439,44.3648082 C35.7412518,44.0929287 35.7408485,43.6522392 36.0123218,43.3801357 L39.1469146,40.2397641 L36.0063837,37.1053526 C35.7342605,36.8337644 35.7338796,36.3930526 36.0054874,36.1210611 C36.005577,36.1208594 36.0057563,36.1206577 36.0059579,36.1205681 C36.2771848,35.8492712 36.7175475,35.8490919 36.9895138,36.1204785 L40.1300896,39.2548675 L43.2647944,36.114496 L43.2651978,36.114003 C43.536828,35.8424148 43.9772355,35.8421459 44.2495156,36.1139358 C44.5216387,36.385524 44.5220197,36.8262134 44.2504119,37.0982946 L41.1157294,40.238599 L44.2564172,43.3730104 C44.5283836,43.6445987 44.5288989,44.0852657 44.2576945,44.3569659 Z" id="Path" fill="#009AC9" fill-rule="nonzero"></path>
                        </g>
                    </g>
                </g>
            </g>
        </g>
    </g>
</svg>