<?xml version="1.0" encoding="UTF-8"?>
<svg width="30px" height="31px" viewBox="0 0 30 31" version="1.1" xmlns="http://www.w3.org/2000/svg" xmlns:xlink="http://www.w3.org/1999/xlink">
    <!-- Generator: Sketch 52.2 (67145) - http://www.bohemiancoding.com/sketch -->
    <title>icon-巴比特-n</title>
    <desc>Created with Sketch.</desc>
    <g id="Page-1" stroke="none" stroke-width="1" fill="none" fill-rule="evenodd">
        <g id="首页" transform="translate(-1213.000000, -4066.000000)">
            <g id="加入社区" transform="translate(0.000000, 3977.746094)">
                <g id="icon-巴比特-n" transform="translate(1213.000000, 89.000000)">
                    <g id="巴比特1-copy-2" transform="translate(6.000000, 6.000000)">
                        <rect id="矩形" stroke="#2FCAEC" stroke-width="0.2" x="0.1" y="0.1" width="17.8" height="17.8" rx="4"></rect>
                        <path d="M8,8.80084334 C6.6406089,8.32036753 5.66666667,7.02392196 5.66666667,5.5 C5.66666667,3.56700338 7.23367004,2 9.16666667,2 C11.0996633,2 12.6666667,3.56700338 12.6666667,5.5 C12.6666667,7.02392196 11.6927244,8.32036753 10.3333333,8.80084334 L10.3333333,6.9142793 C10.7405011,6.57801541 11,6.06931231 11,5.5 C11,4.48747796 10.1791887,3.66666667 9.16666667,3.66666667 C8.15414463,3.66666667 7.33333333,4.48747796 7.33333333,5.5 C7.33333333,6.06931231 7.59283222,6.57801541 8,6.9142793 L8,8.80084334 Z" id="合并形状" fill="#18C1E5"></path>
                        <rect id="矩形" fill="#18C1E5" x="8.33333333" y="5.66666667" width="1.66666667" height="7.66666667" rx="0.833333333"></rect>
                        <path d="M16.3333333,9.8030303 L15,9.46969697 L15,10.1363636 C15,13.4500721 12.3137085,16.1363636 9,16.1363636 C5.6862915,16.1363636 3,13.4500721 3,10.1363636 L3,9.46969697 L1.66666667,9.8030303 L4.66666667,6.66666667 L4.66666667,10.1363636 C4.66666667,12.5295976 6.60676608,14.469697 9,14.469697 C11.3932339,14.469697 13.3333333,12.5295976 13.3333333,10.1363636 L13.3333333,6.66666667 L16.3333333,9.8030303 Z" id="合并形状" fill="#18C1E5"></path>
                    </g>
                    <circle id="椭圆形" stroke="#2FCAEC" stroke-width="0.5" cx="15" cy="15" r="14.75"></circle>
                </g>
            </g>
        </g>
    </g>
</svg>