<?xml version="1.0" encoding="UTF-8"?>
<svg width="30px" height="31px" viewBox="0 0 30 31" version="1.1" xmlns="http://www.w3.org/2000/svg" xmlns:xlink="http://www.w3.org/1999/xlink">
    <!-- Generator: Sketch 52.2 (67145) - http://www.bohemiancoding.com/sketch -->
    <title>icon-币乎-n</title>
    <desc>Created with Sketch.</desc>
    <g id="Page-1" stroke="none" stroke-width="1" fill="none" fill-rule="evenodd">
        <g id="首页" transform="translate(-1173.000000, -4066.000000)">
            <g id="加入社区" transform="translate(0.000000, 3977.746094)">
                <g id="icon-币乎-n" transform="translate(1173.000000, 89.000000)">
                    <g id="币乎" transform="translate(7.000000, 6.000000)">
                        <path d="M5.4,9.00000003 C5.4,10.4911688 6.60883118,11.7 8.1,11.7 C9.59116882,11.7 10.8,10.4911688 10.8,9.00000003 C10.8,8.03538293 10.2853829,7.14403997 9.45000002,6.66173142 C8.6146171,6.17942286 7.5853829,6.17942286 6.74999998,6.66173142 C5.91461707,7.14403997 5.39999998,8.03538293 5.4,9.00000003 Z" id="路径" fill="#18C1E5"></path>
                        <path d="M16.1779196,11.5449515 L16.1779196,9.90937523 L15.2982025,9.90937523 L15.2982025,11.6791926 L13.4253057,11.6791926 L13.4253057,9.90937523 L12.3925562,9.90937523 C11.9618796,11.8705945 10.196324,13.3444319 8.0888505,13.3444319 C5.66000918,13.3444319 3.68414348,11.3873265 3.68414348,8.98202901 C3.68414348,6.57673154 5.66022779,4.61962615 8.0888505,4.61962615 C10.196324,4.61962615 11.9618796,6.09324705 12.3925562,8.0546828 L16.1779196,8.0546828 L16.1779196,5.93757067 C16.2369464,5.76673804 16.1304796,5.5837804 16.1304796,5.39324464 C16.1304796,4.7133784 15.1467005,3.79642505 14.9422931,3.75117281 L9.38984373,0.493011283 C9.08224879,0.188370582 8.65747483,0 8.18810289,0 C7.90236971,0 7.58909071,0.108475473 7.31013468,0.293598287 L1.1838142,3.80162148 C0.53954819,4.02117064 0.0706134787,4.61313061 0.0393511646,5.31811293 L0,5.37527365 L0,12.5511103 L0.0389139294,12.6180143 C0.0382580767,12.6370679 0.0373836064,12.656338 0.0373836064,12.6756081 C0.0373836064,13.3197488 0.402912202,13.8792311 0.939618364,14.16222 L0.941367305,14.1654678 L7.2071658,17.7135468 L7.23624194,17.7115981 C7.50776497,17.8936897 7.83525411,18 8.18788427,18 C8.53308143,18 8.91828561,17.8417254 9.23462525,17.5810378 L9.2551753,17.5797387 L15.1193733,14.2678808 C15.7881245,14.0416196 16.2,13.4141506 16.2,12.675175 C16.2,12.4162196 16.1923484,11.5427863 16.1779196,11.5449515 Z" id="路径" fill="#15C0E4"></path>
                    </g>
                    <circle id="椭圆形" stroke="#26C2E3" stroke-width="0.5" cx="15" cy="15" r="14.75"></circle>
                </g>
            </g>
        </g>
    </g>
</svg>