<?xml version="1.0" encoding="UTF-8"?>
<svg width="43px" height="50px" viewBox="0 0 43 50" version="1.1" xmlns="http://www.w3.org/2000/svg" xmlns:xlink="http://www.w3.org/1999/xlink">
    <!-- Generator: Sketch 52.2 (67145) - http://www.bohemiancoding.com/sketch -->
    <title>icon-2-3</title>
    <desc>Created with Sketch.</desc>
    <g id="Page-1" stroke="none" stroke-width="1" fill="none" fill-rule="evenodd">
        <g id="blockchain-solutions1-wanxiang-blockchain-" transform="translate(-1339.000000, -437.000000)" fill-rule="nonzero">
            <g id="分组-2" transform="translate(0.000000, 303.000000)">
                <g id="3" transform="translate(1250.000000, 134.000000)">
                    <g id="icon-2-3" transform="translate(89.000000, 0.000000)">
                        <path d="M41.7418472,7.56031927 C41.3331813,7.3267959 31.2332953,0 21.2793615,0 C10.8875713,0 1.1963512,7.3267959 0.787685291,7.58950969 L0.0287343216,8.05655644 L0.846066135,26.4465222 L0.846066135,26.4757127 C1.22554162,31.6424173 3.29806157,34.7657925 5.28301026,37.5096921 C5.54572406,37.8891676 8.6690992,41.9174458 14.3612315,45.6246294 L21.2793615,49.9740023 L27.7596351,45.595439 C32.459293,42.4720639 35.4950969,39.4654504 36.8962372,37.918358 C37.3049031,37.4513113 37.6843786,36.9842645 38.0346636,36.4588369 C39.6401368,34.0068415 41.4207526,31.5548461 41.6834664,26.4757127 L42.5007982,8.08574686 L41.7418472,7.56031927 Z M38.7936146,23.936146 C37.3049031,23.6150513 35.4367161,23.2939567 33.6269099,22.9436716 L32.0214367,22.6517674 L31.8754846,24.286431 C31.6127708,26.9427594 30.3575827,29.3947548 28.4018244,31.1753706 C26.4168757,32.9851767 23.8481186,33.9776511 21.1625998,33.9776511 C16.1710376,34.0068415 11.8216648,30.5915621 10.6832383,25.7167617 L7.76419612,26.4173318 C8.49395667,29.3947548 10.1870011,32.0218928 12.5806157,33.9484607 C15.0326112,35.8750285 18.0392246,36.9258837 21.1625998,36.9258837 C24.6070696,36.9258837 27.8763968,35.6415051 30.4451539,33.3354618 C32.5468643,31.4380844 34.0063854,28.9277081 34.6193843,26.154618 C35.9037628,26.4173318 37.4800456,26.6508552 38.6768529,26.9427594 C38.3849487,30.7958951 36.954618,32.6057013 35.5534778,34.7366021 C35.290764,35.145268 34.9988597,35.495553 34.7069555,35.8458381 C33.6852908,37.013455 30.7662486,39.990878 26.1541619,43.0266819 L21.2793615,46.3251995 L16.0250855,43.0266819 C10.7708096,39.5822121 7.82257697,35.7874572 7.76419612,35.7582668 L7.7350057,35.7290764 C6.18791334,33.627366 4.17377423,30.9710376 3.85267959,26.2713797 L3.76510832,24.2280502 C6.85929304,23.4982896 7.53067275,23.4107184 9.34047891,22.972862 L10.3329532,22.7393387 L10.4789054,21.7468643 C11.2086659,16.4342075 15.7915621,12.4351197 21.1625998,12.4351197 C26.0082098,12.4351197 30.2992018,15.704447 31.55439,20.3457241 L34.4442417,19.5283922 C32.8095781,13.5735462 27.3509692,9.42850627 21.1625998,9.42850627 C17.8057013,9.42850627 14.5655644,10.654504 12.0259977,12.8729761 C9.80752566,14.8287343 8.2604333,17.4266819 7.64743444,20.3457241 C6.65496009,20.5792474 5.63329532,20.75439 3.64834664,21.2214367 L3.12291904,9.77879133 C5.45815279,8.49441277 13.3687571,3.0649943 21.2793615,3.0649943 C28.8688712,3.0649943 37.0129989,8.49441277 39.4358039,9.77879133 L38.7936146,23.936146 Z" id="形状" fill="#009AC9"></path>
                        <path d="M21.2506271,1.0658141e-14 C31.204561,1.0658141e-14 41.304447,7.3267959 41.7131129,7.56031927 L42.4720639,8.08574686 L41.654732,26.4757127 C41.3920182,31.5548461 39.6114025,34.0068415 38.0059293,36.4588369 C37.6556442,36.9842645 37.2761688,37.4513113 36.8675029,37.918358 C35.4663626,39.4654504 32.4305587,42.4720639 27.7309008,45.595439 L21.2506271,49.9740023 L14.3324971,45.6246294 C8.64036488,41.9174458 5.51698974,37.8891676 5.25427594,37.5096921 C3.26932725,34.7657925 1.1968073,31.6424173 0.817331813,26.4757127 L0.817331813,26.4465222 L4.26325641e-14,8.05655644 L0.758950969,7.58950969 C1.16761688,7.3267959 10.8588369,1.0658141e-14 21.2506271,1.0658141e-14 Z M38.7648803,23.936146 L39.4070696,9.77879133 C36.9842645,8.49441277 28.8401368,3.0649943 21.2506271,3.0649943 C13.3400228,3.0649943 5.42941847,8.49441277 3.09418472,9.77879133 L3.61961231,21.2214367 C3.61961231,21.2214367 3.736374,24.2280502 3.736374,24.2280502 L3.82394527,26.2713797 C4.14503991,30.9710376 6.15917902,33.627366 7.70627138,35.7290764 L7.7354618,35.7582668 C7.79384265,35.7874572 10.7420753,39.5822121 15.9963512,43.0266819 L21.2506271,46.3251995 L26.1254276,43.0266819 C30.7375143,39.990878 33.6565564,37.013455 34.6782212,35.8458381 C34.9701254,35.495553 35.2620296,35.145268 35.5247434,34.7366021 C36.9258837,32.6057013 38.3562144,30.7958951 38.6481186,26.9427594 C38.6481186,26.9427594 38.7648803,23.936146 38.7648803,23.936146 Z" id="合并形状" fill="#443D4E"></path>
                        <path d="M21.1625998,15.7336374 C16.9299886,15.7336374 13.4855188,19.1781072 13.4855188,23.4107184 C13.4855188,27.6433295 16.9299886,31.0877993 21.1625998,31.0877993 C25.3952109,31.0877993 28.8396807,27.6433295 28.8396807,23.4107184 C28.8396807,19.1781072 25.3952109,15.7336374 21.1625998,15.7336374 Z" id="形状" fill="#443D4E"></path>
                        <path d="M22.2718358,23.6150513 L22.2718358,26.4173318 C22.2718358,27.0303307 21.7755986,27.5265678 21.1917902,27.5265678 L21.1625998,27.5265678 C20.5496009,27.5265678 20.0533637,27.0303307 20.0533637,26.4465222 L20.0533637,23.6442417 C19.4403649,23.2647662 19.0608894,22.5933865 19.0608894,21.8928164 C19.0608894,20.7251995 19.9949829,19.791106 21.1334094,19.791106 C22.2718358,19.791106 23.2059293,20.7251995 23.2059293,21.863626 C23.2351197,22.5641961 22.8556442,23.2355758 22.2718358,23.6150513 Z" id="路径" fill="#A0DFF9"></path>
                    </g>
                </g>
            </g>
        </g>
    </g>
</svg>