<?xml version="1.0" encoding="UTF-8"?>
<svg width="50px" height="50px" viewBox="0 0 50 50" version="1.1" xmlns="http://www.w3.org/2000/svg" xmlns:xlink="http://www.w3.org/1999/xlink">
    <!-- Generator: Sketch 52.2 (67145) - http://www.bohemiancoding.com/sketch -->
    <title>icon-kms-09</title>
    <desc>Created with Sketch.</desc>
    <g id="Page-1" stroke="none" stroke-width="1" fill="none" fill-rule="evenodd">
        <g id="kms-" transform="translate(-1355.000000, -1093.000000)" fill-rule="nonzero">
            <g id="Group-4-Copy-3" transform="translate(400.000000, 770.000000)">
                <g id="Group-5-Copy-3" transform="translate(865.000000, 323.000000)">
                    <g id="icon-kms-09" transform="translate(90.000000, 0.000000)">
                        <polygon id="Path" fill="#009AC9" points="39.8583661 0.00349234272 10.0427489 0.00349234272 0 10.9986807 0 23.6139927 24.8724001 49.9240739 49.9273075 23.6966448 49.9275662 11.097307"></polygon>
                        <polygon id="Path-Copy-2" fill="#443D4E" points="38.0858272 3.31475062 11.8201997 3.31475062 3.64238411 12.2678525 3.64238411 22.5401798 24.8893699 45.2883123 46.2849715 22.6074813 46.2851821 12.3481614"></polygon>
                        <polygon id="Path" fill="#A0DFF9" points="41.5346906 17.4940501 40.1945801 17.4940501 25.3848735 33.193424 10.65625 17.4940501 9.0258304 17.4940501 9.0258304 15.6832057 16.5581022 15.6832057 16.5581022 17.4940501 15.5777588 17.4940501 25.3848735 28.3800656 34.0445516 17.4940501 32.7537769 17.4940501 32.7537769 15.6832057 41.5346906 15.6832057"></polygon>
                    </g>
                </g>
            </g>
        </g>
    </g>
</svg>