<?xml version="1.0" encoding="UTF-8"?>
<svg width="49px" height="50px" viewBox="0 0 49 50" version="1.1" xmlns="http://www.w3.org/2000/svg" xmlns:xlink="http://www.w3.org/1999/xlink">
    <!-- Generator: Sketch 52.2 (67145) - http://www.bohemiancoding.com/sketch -->
    <title>icon-kms-03</title>
    <desc>Created with Sketch.</desc>
    <g id="Page-1" stroke="none" stroke-width="1" fill="none" fill-rule="evenodd">
        <g id="kms-" transform="translate(-1358.000000, -445.000000)">
            <g id="分组-2" transform="translate(0.000000, 310.000000)">
                <g id="Group-5-Copy-2" transform="translate(1270.000000, 135.000000)">
                    <g id="icon-kms-03" transform="translate(88.000000, 0.000000)">
                        <g id="资产-(2)" fill-rule="nonzero">
                            <path d="M37.4849567,38.0281377 C37.4849567,38.0281377 37.5572096,27.6857464 37.4849567,26.9534562 C37.2285453,21.6714292 26.6643979,14.6310929 26.6643979,14.6310929 L13.7170262,14.6310929 C9.05776579,17.2709154 3.26483101,23.1032694 2.64005605,27.0630265 C2.5862984,27.2682957 2.20144786,35.7918945 2.05222486,38.6858398 C1.90767238,41.5821671 0,44.2966245 0,44.2966245 C0,44.2966245 4.76901749,47.7084367 20.4285114,47.818007 C36.0905273,47.9276707 38.3292459,45.1035496 39.9054985,44.1871476 C37.7786855,44.2593538 37.4849567,38.0281377 37.4849567,38.0281377 Z M13.4978855,11.3662619 L26.1140243,11.3662619 C26.1140243,11.3662619 27.0678371,8.57945822 33.0074728,4.17899117 C31.8718835,3.59134681 30.2370627,4.49845448 29.5608186,3.95980384 C28.8378694,3.3814538 28.9729874,1.31998132 27.2147716,1.09836532 C25.4517451,0.879177989 23.6187075,3.29976647 23.6187075,3.29976647 C23.6187075,3.29976647 22.007286,4.76663553 21.2727539,2.49288808 C20.5382218,0.21918733 17.8261464,0 16.9445397,0 C16.0629331,0 13.8801673,0.659897249 13.4978855,3.46538298 C13.3299805,4.34446756 12.397185,4.67565387 11.6275306,4.23494395 C10.855681,3.79652259 9.81093325,3.46538298 8.21347656,3.63085938 C10.0860267,5.68308424 14.8177267,10.193215 13.4978855,11.3662619 Z" id="Shape" fill="#A0DFF9"></path>
                            <path d="M26.3893045,36.1439113 C26.1769828,37.5081692 25.4191916,40.4884723 21.3100713,40.786965 L21.3100713,43.3988578 L18.4066916,43.3988578 L18.4066916,40.8079356 C16.6716882,40.5631072 15.0741848,40.1153448 13.4302565,39.5650178 L14.3001401,36.1532057 C15.6036812,36.6639733 17.3200493,37.2072478 18.8311948,37.3822053 C20.880991,37.6200747 22.2615489,37.1979535 22.3921365,35.7124958 C22.6836702,33.109944 13.5515031,32.6505053 13.6376741,27.9537874 C13.5118504,24.5024626 16.0165082,23.0006114 18.5116848,22.7931004 L18.5116848,20.076261 L21.4127293,20.076261 L21.4127293,22.6694718 C23.0638502,22.6881072 24.3673446,23.0449813 25.6383789,23.5999788 L24.8337424,26.8135275 C23.5581309,26.3331182 22.2498726,25.8806853 20.6875382,25.8806853 C19.6753439,25.8806853 17.5509129,25.8854025 17.4763247,27.2774966 C17.4763247,29.6795431 21.4967052,29.803125 22.8306046,30.369752 C23.8052947,30.7848675 24.4817255,31.1883534 25.1743631,31.8646442 C26.3845406,33.0469854 26.6340396,34.567472 26.3893045,36.1439113 Z" id="Path" fill="#009AC9"></path>
                        </g>
                        <g id="依赖" transform="translate(29.347826, 30.434783)">
                            <path d="M18.7960392,5.97438019 C18.3033089,4.8094705 17.598016,3.76340445 16.6997451,2.86517594 C15.801519,1.96694744 14.7554223,1.26172783 13.5903165,0.769010689 C12.3838006,0.258771721 11.1025764,0 9.78305686,0 C8.46264099,0 7.18141675,0.258771721 5.9748337,0.769010689 C4.80981753,1.26172783 3.76367601,1.96694746 2.86538269,2.86517594 C1.96720143,3.76340445 1.26184128,4.8094481 0.769043773,5.97438019 C0.258767991,7.18080899 0,8.46205282 0,9.78284396 C0,11.1031646 0.258767991,12.3844084 0.769043773,13.5908372 C1.26181888,14.7557469 1.9672014,15.8019026 2.86538269,16.7000414 C3.76367601,17.59827 4.80981753,18.303512 5.9748337,18.7962067 C7.18143917,19.3065577 8.46266339,19.5652174 9.78305686,19.5652174 C11.1025764,19.5652174 12.3838006,19.3065353 13.5904061,18.7962067 C14.7554223,18.3034896 15.8015414,17.5982699 16.6997451,16.7000414 C17.598016,15.8019026 18.3033089,14.7557469 18.7960392,13.5908372 C19.3064494,12.3844084 19.5652174,11.1031646 19.5652174,9.78284396 C19.5651053,8.4620304 19.3064494,7.18089859 18.7960392,5.97438019 Z" id="Path" fill="#443D4E" fill-rule="nonzero"></path>
                            <polygon id="Path" fill="#FFFFFF" points="8.65082922 12.1470193 5.24428507 12.1470193 5.24428507 5.24428507 12.1470193 5.24428507 12.1470193 6.32003586 13.0434783 6.32003586 13.0434783 4.34782609 4.34782609 4.34782609 4.34782609 13.0434783 8.65082922 13.0434783"></polygon>
                            <polygon id="Path" fill="#FFFFFF" points="10.9143882 6.52173913 10.9143882 7.41819812 14.3209323 7.41819812 14.3209323 14.3209323 7.41819812 14.3209323 7.41819812 13.2451815 6.52173913 13.2451815 6.52173913 15.2173913 15.2173913 15.2173913 15.2173913 6.52173913"></polygon>
                            <polygon id="Path" fill="#FFFFFF" points="6.52173913 7.13771983 7.1368498 6.52173913 13.0434783 12.4283676 12.4274976 13.0434783"></polygon>
                        </g>
                    </g>
                </g>
            </g>
        </g>
    </g>
</svg>