<?xml version="1.0" encoding="UTF-8"?>
<svg width="44px" height="50px" viewBox="0 0 44 50" version="1.1" xmlns="http://www.w3.org/2000/svg" xmlns:xlink="http://www.w3.org/1999/xlink">
    <!-- Generator: Sketch 52.2 (67145) - http://www.bohemiancoding.com/sketch -->
    <title>icon-kms-06</title>
    <desc>Created with Sketch.</desc>
    <g id="Page-1" stroke="none" stroke-width="1" fill="none" fill-rule="evenodd">
        <g id="kms-" transform="translate(-1359.000000, -862.000000)" fill-rule="nonzero">
            <g id="Group-4-Copy-3" transform="translate(400.000000, 770.000000)">
                <g id="Group-5-Copy-2" transform="translate(870.000000, 92.000000)">
                    <g id="icon-kms-06" transform="translate(89.000000, 0.000000)">
                        <path d="M41.1712483,12.0954996 L21.8330001,23.0898698 L2.49831917,12.0954996 C2.00250245,11.8123678 1.70276357,11.2793236 1.71843114,10.7085764 C1.73409871,10.1378292 2.06262933,9.62203164 2.57323215,9.36652707 L20.4310574,0.398374341 C21.30741,-0.068385697 22.3585902,-0.068385697 23.2349428,0.398374341 L41.092768,9.28804683 C41.592478,9.57139078 41.9076383,10.0954158 41.9236903,10.6696423 C41.9397424,11.2438689 41.6543489,11.7846819 41.1712483,12.0954996 Z" id="Path" fill="#A0DFF9"></path>
                        <path d="M17.9339583,49.75532 L1.56012341,39.6206653 C0.585904797,39.0980167 -0.0154312599,38.0756078 0.00122014634,36.970173 L0.00122014634,16.5403358 C-0.00686759203,15.9801997 0.291037428,15.4602004 0.778334113,15.1838675 C1.2656308,14.9075346 1.86481301,14.9188198 2.34135868,15.213306 L18.7151936,25.351528 C19.6456366,25.9081768 20.2095959,26.9178678 20.1956166,28.0020203 L20.1956166,48.4318575 C20.2740968,49.6019268 18.9470671,50.3795947 17.9339583,49.75532 Z" id="Path" fill="#009AC9"></path>
                        <path d="M25.7320419,49.75532 L42.1058768,39.6206653 C43.0363198,39.0640165 43.6002791,38.0543255 43.5862998,36.970173 L43.5862998,16.5403358 C43.5935631,15.9813426 43.2961411,15.4626617 42.810029,15.1865797 C42.3239169,14.9104977 41.7261002,14.9207377 41.2497285,15.213306 L24.8758936,25.351528 C23.9440807,25.9072827 23.3786689,26.9171408 23.3919033,28.0020203 L23.3919033,48.4318575 C23.3919033,49.6019268 24.7189331,50.3795947 25.7320419,49.75532 Z" id="Path" fill="#443D4E"></path>
                    </g>
                </g>
            </g>
        </g>
    </g>
</svg>