<?xml version="1.0" encoding="UTF-8"?>
<svg width="47px" height="48px" viewBox="0 0 47 48" version="1.1" xmlns="http://www.w3.org/2000/svg" xmlns:xlink="http://www.w3.org/1999/xlink">
    <!-- Generator: Sketch 52.2 (67145) - http://www.bohemiancoding.com/sketch -->
    <title>icon-3-2</title>
    <desc>Created with Sketch.</desc>
    <g id="Page-1" stroke="none" stroke-width="1" fill="none" fill-rule="evenodd">
        <g id="Consulting-Service" transform="translate(-939.000000, -438.000000)">
            <g id="分组-2" transform="translate(0.000000, 303.000000)">
                <g id="2" transform="translate(850.000000, 135.000000)">
                    <g id="icon-3-2" transform="translate(89.000000, 0.000000)">
                        <path d="M7.73833226,29.7316096 L22.4195217,29.7316096 L22.4195217,32.5047188 L7.73833226,32.5047188 L7.73833226,29.7316096 Z M8.01409179,37.3850032 L29.7556561,37.3850032 L29.7556561,40.1596639 L8.01409179,40.1596639 L8.01409179,37.3850032 Z" id="形状" fill="#009AC9" fill-rule="nonzero"></path>
                        <path d="M38.6831286,25.3970265 C38.3151899,25.3969235 37.962297,25.5430676 37.7021613,25.803276 C37.4420257,26.0634844 37.2959803,26.4164181 37.2961862,26.7843568 L37.2961862,44.6307692 L2.81111829,44.6307692 L2.81111829,4.81435036 L16.6328378,4.81435036 C17.3990391,4.81435036 18.0201681,4.19322142 18.0201681,3.42702004 C18.0201681,2.66081866 17.3990391,2.03968972 16.6328378,2.03968972 L0.0380090498,2.03968972 L0.0380090498,47.4007757 L40.0692954,47.4007757 L40.0692954,26.7816419 C40.0692954,26.0191338 39.4487395,25.3970265 38.6831286,25.3970265 Z" id="路径" fill="#443D4E"></path>
                        <polygon id="路径" fill="#A0DFF9" points="21.0480931 17.8541694 38.5113122 1.19650937 44.6683904 7.65145443 27.2043956 24.3095023"></polygon>
                        <path d="M45.7946994,7.25235941 L38.9270847,0.351777634 C38.7216696,0.14480094 38.442221,0.0282477351 38.1506141,0.0279250162 C37.8779573,-0.0244343891 37.5769877,0.142340013 37.3718164,0.34789916 L20.1975436,17.4403361 C20.0223026,17.6140053 19.9110253,17.8418914 19.8818358,18.0868778 L18.9455721,25.7697479 C18.9056238,26.0994182 19.0173239,26.4314156 19.2488688,26.6699418 C19.4816409,26.9083068 19.809566,27.0288738 20.1413058,26.9980608 L27.8943762,26.2685197 C28.14822,26.2438732 28.3857746,26.1323568 28.5669037,25.9528119 L45.7923723,8.80879121 C46.2218771,8.3792487 46.2229178,7.68318433 45.7946994,7.25235941 Z M27.2939884,24.1132515 L21.2939884,24.6775695 L22.0192631,18.7310924 L38.1440207,2.68351648 L43.4586942,8.02572721 L27.2939884,24.1132515 Z" id="形状" fill="#443D4E" fill-rule="nonzero"></path>
                    </g>
                </g>
            </g>
        </g>
    </g>
</svg>