<?xml version="1.0" encoding="UTF-8"?>
<svg width="50px" height="50px" viewBox="0 0 50 50" version="1.1" xmlns="http://www.w3.org/2000/svg" xmlns:xlink="http://www.w3.org/1999/xlink">
    <!-- Generator: Sketch 52.2 (67145) - http://www.bohemiancoding.com/sketch -->
    <title>icon-3-3</title>
    <desc>Created with Sketch.</desc>
    <g id="Page-1" stroke="none" stroke-width="1" fill="none" fill-rule="evenodd">
        <g id="Consulting-Service" transform="translate(-1335.000000, -437.000000)" fill-rule="nonzero">
            <g id="分组-2" transform="translate(0.000000, 303.000000)">
                <g id="3" transform="translate(1250.000000, 134.000000)">
                    <g id="icon-3-3" transform="translate(85.000000, 0.000000)">
                        <path d="M20.049,0.482171875 C24.222,-0.342828125 28.61,-0.111828125 32.66,1.20017187 C36.141,2.31917187 39.364,4.22317187 42.034,6.72017187 C45.515,9.96217187 48.045,14.2181719 49.199,18.8361719 C50.31,23.2421719 50.193,27.9531719 48.852,32.2961719 C47.038,38.2481719 42.887,43.4331719 37.498,46.5361719 C33.983,48.5811719 29.958,49.7361719 25.894,49.8751719 C21.454,50.0451719 16.972,49.0091719 13.07,46.8821719 C7.82,44.0511719 3.65,39.2771719 1.572,33.6841719 C0.612,31.1421719 0.107,28.4401719 0,25.7281719 L0,24.2351719 C0.053,23.3001719 0.104,22.3631719 0.243,21.4351719 C0.937,16.4171719 3.231,11.6421719 6.693,7.94617187 C10.221,4.14617187 14.959,1.48717187 20.049,0.482171875 Z M24.2002045,3.01576694 C22.0913414,3.09104945 19.9920078,3.46746197 17.9917802,4.14119273 C13.5453478,5.6220663 9.6135046,8.57904871 6.93954629,12.42608 C4.47142368,15.9462517 3.08393854,20.2087662 3.00579721,24.5074925 C2.91240879,28.5222417 3.94921087,32.5570027 5.97993259,36.0219038 C8.69677334,40.7065721 13.2022883,44.3191793 18.3729575,45.932512 C22.8794254,47.3581148 27.8471177,47.2799735 32.3040325,45.7066644 C35.5459449,44.5698033 38.5095979,42.6553407 40.885285,40.1748298 C43.3210076,37.6419071 45.1382701,34.5162537 46.1207544,31.1418823 C47.4043687,26.7678735 47.2804861,21.9926756 45.7624478,17.6929964 C44.0461973,12.7700924 40.501249,8.52187212 35.979534,5.92986691 C32.430774,3.87436867 28.2969068,2.86043722 24.2002045,3.01576694 Z" id="形状" fill="#443D4E"></path>
                        <path d="M16.151,10.4201719 C17.712,10.1931719 19.349,10.5311719 20.685,11.3711719 C22.591,12.5411719 23.835,14.7091719 23.859,16.9481719 C23.866,18.7471719 23.864,20.5471719 23.86,22.3471719 C23.863,23.1231719 23.182,23.8201719 22.405,23.8301719 C20.639,23.8361719 18.872,23.8311719 17.106,23.8321719 C15.658,23.8361719 14.215,23.3561719 13.06,22.4831719 C11.786,21.5301719 10.863,20.1141719 10.525,18.5571719 C10.16,16.9291719 10.424,15.1661719 11.266,13.7231719 C12.278,11.9531719 14.13,10.6951719 16.151,10.4201719 Z M27.237,26.1021719 C27.487,26.0411719 27.747,26.0581719 28.003,26.0561719 C29.636,26.0591719 31.27,26.0551719 32.903,26.0581719 C34.198,26.0671719 35.487,26.4591719 36.564,27.1761719 C37.864,28.0331719 38.853,29.3531719 39.299,30.8461719 C39.774,32.4081719 39.657,34.1431719 38.967,35.6241719 C38.295,37.0861719 37.079,38.2881719 35.61,38.9451719 C34.05,39.6521719 32.219,39.7291719 30.604,39.1601719 C28.501,38.4401719 26.823,36.6111719 26.294,34.4511719 C26.028,33.4731719 26.095,32.4531719 26.088,31.4511719 C26.09,30.1511719 26.083,28.8501719 26.091,27.5501719 C26.088,26.8801719 26.587,26.2561719 27.237,26.1021719 Z" id="形状" fill="#A0DFF9"></path>
                        <path d="M31.853,10.4231719 C33.241,10.2191719 34.693,10.4551719 35.938,11.1031719 C37.268,11.7881719 38.357,12.9281719 38.977,14.2891719 C39.616,15.6751719 39.756,17.2801719 39.379,18.7571719 C38.976,20.3661719 37.947,21.8021719 36.564,22.7131719 C35.458,23.4501719 34.13,23.8411719 32.802,23.8321719 C31.067,23.8311719 29.332,23.8351719 27.597,23.8311719 C26.802,23.8471719 26.087,23.1431719 26.091,22.3481719 C26.084,20.5841719 26.088,18.8201719 26.089,17.0561719 C26.093,15.5801719 26.6,14.1121719 27.512,12.9511719 C28.563,11.5931719 30.151,10.6651719 31.853,10.4231719 Z" id="路径" fill="#009AC9"></path>
                        <path d="M16.148,26.1261719 C16.528,26.0701719 16.912,26.0541719 17.296,26.0561719 C18.998,26.0601719 20.701,26.0521719 22.403,26.0601719 C23.186,26.0681719 23.873,26.7751719 23.861,27.5591719 C23.865,29.2881719 23.862,31.0181719 23.862,32.7481719 C23.913,35.3091719 22.346,37.7991719 20.027,38.8791719 C18.447,39.6411719 16.566,39.7461719 14.909,39.1701719 C13.417,38.6611719 12.122,37.6051719 11.316,36.2511719 C10.543,34.9681719 10.227,33.4231719 10.42,31.9391719 C10.599,30.4871719 11.276,29.1041719 12.306,28.0661719 C13.329,27.0231719 14.701,26.3281719 16.148,26.1261719 Z" id="路径" fill="#009AC9"></path>
                    </g>
                </g>
            </g>
        </g>
    </g>
</svg>