<?xml version="1.0" encoding="UTF-8"?>
<svg width="14px" height="11px" viewBox="0 0 14 11" version="1.1" xmlns="http://www.w3.org/2000/svg" xmlns:xlink="http://www.w3.org/1999/xlink">
    <!-- Generator: Sketch 52.2 (67145) - http://www.bohemiancoding.com/sketch -->
    <title>icon-邮件</title>
    <desc>Created with Sketch.</desc>
    <g id="Page-1" stroke="none" stroke-width="1" fill="none" fill-rule="evenodd">
        <g id="画板" transform="translate(-172.000000, -83.000000)">
            <g id="分组-2">
                <g id="分组-13" transform="translate(130.000000, 76.000000)">
                    <g id="分组-12" transform="translate(37.000000, 0.000000)">
                        <g id="icon-邮件" transform="translate(5.000000, 5.000000)">
                            <rect id="矩形" fill="#000000" opacity="0" x="0" y="0" width="14" height="14"></rect>
                            <path d="M1.67207031,3.33457031 L2.23125,3.33457031 L2.00976562,3.33457031 C1.82109375,3.34550781 1.67207031,3.50136719 1.67207031,3.69277344 L1.67207031,3.33457031 Z M1.67753906,11.1384766 L2.23671875,11.1384766 L2.01523437,11.1384766 C1.8265625,11.1275391 1.67753906,10.9716797 1.67753906,10.7802734 L1.67753906,11.1384766 Z M12.6150391,8.1484375 C12.3060547,8.1484375 12.0544922,7.89824219 12.0544922,7.58789063 L12.0544922,5.5890625 C12.0544922,5.28007812 12.3046875,5.02851562 12.6150391,5.02851562 C12.9240234,5.02851562 13.1755859,5.27871094 13.1755859,5.5890625 L13.1755859,7.58925781 C13.1755859,7.89824219 12.9253906,8.1484375 12.6150391,8.1484375 Z" id="形状" fill="#FFFFFF" fill-rule="nonzero"></path>
                            <path d="M13.1755859,2.77949219 L13.1755859,2.76035156 L13.1755859,2.75078125 C13.1755859,2.74394531 13.1742187,2.73710937 13.1742187,2.73027344 L13.1742187,2.72207031 C13.1728516,2.71523437 13.1728516,2.70703125 13.1714844,2.70019531 C13.1701172,2.69335938 13.16875,2.68652344 13.16875,2.6796875 C13.1673828,2.67558594 13.1673828,2.67148437 13.1660156,2.66738281 C13.1646484,2.66191406 13.1632812,2.65644531 13.1619141,2.64960937 C13.1605469,2.646875 13.1605469,2.64277344 13.1591797,2.64003906 C13.1578125,2.63457031 13.1564453,2.62910156 13.1537109,2.62226562 C13.1523437,2.61953125 13.1523437,2.61679687 13.1509766,2.61269531 C13.1496094,2.60722656 13.146875,2.60175781 13.1455078,2.59628906 C13.1441406,2.59355469 13.1441406,2.58945312 13.1427734,2.58671875 C13.1414062,2.58125 13.1386719,2.57578125 13.1359375,2.5703125 C13.1345703,2.56757813 13.1332031,2.56484375 13.1318359,2.56074219 L13.1236328,2.54433594 L13.1195312,2.53613281 C13.1167969,2.52929688 13.1126953,2.52246094 13.1099609,2.515625 C13.1085937,2.51425781 13.1085937,2.51289063 13.1072266,2.51152344 C13.0935547,2.48691406 13.0785156,2.46367188 13.0621094,2.44042969 C13.0607422,2.4390625 13.0607422,2.43769531 13.059375,2.43769531 C13.0539062,2.43085938 13.0498047,2.42539063 13.0443359,2.41855469 C13.0443359,2.41855469 13.0443359,2.4171875 13.0429687,2.4171875 C13.0416016,2.41582031 13.0402344,2.41445313 13.0388672,2.41171875 C13.0347656,2.40625 13.0306641,2.40214844 13.0265625,2.39667969 L13.0183594,2.38847656 C13.015625,2.384375 13.0115234,2.38164063 13.0087891,2.37753906 L12.9978516,2.36660156 L12.9896484,2.35839844 C12.9855469,2.35429688 12.9814453,2.35019531 12.9759766,2.34746094 C12.9732422,2.34609375 12.971875,2.34335938 12.9691406,2.34199219 C12.9636719,2.33789063 12.9595703,2.33378906 12.9541016,2.3296875 C12.9513672,2.32832031 12.95,2.32695313 12.9472656,2.32421875 C12.9417969,2.32011719 12.9363281,2.31738281 12.9322266,2.31328125 C12.9294922,2.31191406 12.928125,2.31054688 12.9253906,2.30917969 C12.9199219,2.30644531 12.9158203,2.30234375 12.9103516,2.29960938 C12.9076172,2.29824219 12.9048828,2.296875 12.9021484,2.29414063 C12.8980469,2.29140625 12.8925781,2.28867187 12.8871094,2.2859375 C12.884375,2.28457031 12.8802734,2.28183594 12.8761719,2.28046875 C12.8720703,2.27773438 12.8679687,2.27636719 12.8638672,2.27363281 C12.8597656,2.27089844 12.8556641,2.26953125 12.8515625,2.26679688 C12.8474609,2.26542969 12.8447266,2.2640625 12.840625,2.26269531 C12.8351562,2.25996094 12.8296875,2.25859375 12.8255859,2.25585938 C12.8228516,2.25449219 12.8201172,2.253125 12.8173828,2.253125 C12.8119141,2.25039063 12.8050781,2.24902344 12.7996094,2.24628906 C12.796875,2.24492188 12.7955078,2.24492188 12.7927734,2.24355469 C12.7859375,2.24082031 12.7791016,2.23945313 12.7722656,2.23671875 C12.7708984,2.23671875 12.7681641,2.23535156 12.7667969,2.23535156 C12.7599609,2.23398438 12.753125,2.23125 12.7462891,2.22988281 C12.7449219,2.22988281 12.7435547,2.22851563 12.7408203,2.22851563 L12.7203125,2.22441406 C12.7189453,2.22441406 12.7162109,2.22304688 12.7148437,2.22304688 C12.7080078,2.22167969 12.7011719,2.2203125 12.6943359,2.2203125 C12.6916016,2.2203125 12.6888672,2.2203125 12.6861328,2.21894531 C12.6806641,2.21757813 12.6738281,2.21757813 12.6683594,2.21621094 C12.6642578,2.21621094 12.6615234,2.21621094 12.6574219,2.21484375 C12.6519531,2.21484375 12.6464844,2.21347656 12.6423828,2.21347656 L2.23671875,2.21347656 L2.23671875,2.21757813 L1.49160156,2.21757813 C0.977539062,2.21757813 0.560546875,2.63457031 0.560546875,3.14863281 L0.560546875,3.15546875 L0.559179688,3.15546875 L0.559179688,3.89511719 L0.5578125,3.89511719 L0.5578125,11.3667969 C0.583789063,11.8576172 0.98984375,12.2472656 1.4875,12.2472656 L1.49433594,12.2472656 L1.49433594,12.2486328 L2.23398437,12.2486328 L2.23398437,12.25 L8.33710937,12.25 C8.64609375,12.25 8.89765625,11.9998047 8.89765625,11.6894531 C8.89765625,11.3804688 8.64746094,11.1289062 8.33710937,11.1289062 L1.67753906,11.1289062 L1.67753906,3.34140625 L11.0769531,3.34140625 L6.86601562,6.87148437 L3.89921875,4.38320312 C3.66269531,4.18496094 3.30859375,4.21503906 3.11035156,4.45292969 C2.91210938,4.68945312 2.9421875,5.04355469 3.18007812,5.24179688 L6.46679687,7.99804688 C6.52558594,8.05683594 6.5953125,8.10058594 6.66914062,8.12929687 C6.88242187,8.21269531 7.13398437,8.15800781 7.29257812,7.97617187 L12.9759766,3.21152344 C12.9787109,3.21015625 12.9800781,3.20742187 12.9828125,3.20605469 C12.9869141,3.20195312 12.9910156,3.19921875 12.9951172,3.19511719 C12.9992187,3.19238281 13.0019531,3.18828125 13.0060547,3.18554687 C13.0087891,3.1828125 13.0115234,3.18007812 13.015625,3.17734375 L13.0279297,3.16503906 L13.0347656,3.15820312 C13.0388672,3.15410156 13.0429687,3.14863281 13.0470703,3.14316406 C13.0484375,3.14179687 13.0498047,3.1390625 13.0511719,3.13769531 L13.0634766,3.12128906 C13.0648437,3.11992187 13.0662109,3.1171875 13.0675781,3.11582031 L13.0798828,3.09941406 C13.08125,3.09804687 13.0826172,3.0953125 13.0839844,3.09394531 C13.0880859,3.08847656 13.0908203,3.08300781 13.0949219,3.07753906 C13.0962891,3.07480469 13.0976562,3.0734375 13.0990234,3.07070312 C13.1017578,3.06523437 13.1044922,3.06113281 13.1072266,3.05566406 C13.1085937,3.05292969 13.1099609,3.04882812 13.1126953,3.04609375 C13.1154297,3.04199219 13.1167969,3.03652344 13.1195312,3.03242187 C13.1208984,3.02832031 13.1236328,3.02421875 13.125,3.02011719 C13.1263672,3.01601562 13.1291016,3.01191406 13.1304687,3.00917969 C13.1332031,3.00371094 13.1345703,2.99960937 13.1373047,2.99414062 C13.1386719,2.99140625 13.1400391,2.98867187 13.1414062,2.98457031 C13.1441406,2.97910156 13.1455078,2.97363281 13.1482422,2.96679687 C13.1496094,2.9640625 13.1496094,2.96132812 13.1509766,2.95996094 C13.1537109,2.953125 13.1550781,2.94765625 13.1564453,2.94082031 C13.1564453,2.93945312 13.1578125,2.93671875 13.1578125,2.93535156 C13.1591797,2.92851562 13.1619141,2.92167969 13.1632812,2.91484375 C13.1632812,2.91347656 13.1646484,2.91074219 13.1646484,2.909375 L13.16875,2.88886719 C13.16875,2.88613281 13.1701172,2.88476562 13.1701172,2.88203125 C13.1714844,2.87519531 13.1728516,2.86835937 13.1728516,2.86289062 C13.1728516,2.86015625 13.1742187,2.85742187 13.1742187,2.8546875 C13.1755859,2.84921875 13.1755859,2.84238281 13.1755859,2.83691406 C13.1755859,2.8328125 13.1755859,2.82871094 13.1769531,2.82460937 C13.1769531,2.81914062 13.1783203,2.81503906 13.1783203,2.80957031 L13.1783203,2.79453125 L13.1783203,2.78496094 C13.1755859,2.78085937 13.1755859,2.78085937 13.1755859,2.77949219 Z" id="路径" fill="#FFFFFF"></path>
                            <path d="M13.4941406,10.1363281 C13.4941406,10.4453125 13.2439453,10.696875 12.9335938,10.696875 L9.12734375,10.696875 C8.81835938,10.696875 8.56679687,10.4466797 8.56679687,10.1363281 C8.56679687,9.82734375 8.81699219,9.57578125 9.12734375,9.57578125 L12.9335938,9.57578125 C13.2439453,9.57578125 13.4941406,9.82734375 13.4941406,10.1363281 Z" id="路径" fill="#FFFFFF"></path>
                            <path d="M11.0509766,8.21132812 C11.2697266,8.43007812 11.2697266,8.78417969 11.0509766,9.00292969 L9.52246094,10.5314453 C9.30371094,10.7501953 8.94960937,10.7501953 8.73085937,10.5314453 C8.51210937,10.3126953 8.51210937,9.95859375 8.73085937,9.73984375 L10.259375,8.21132812 C10.478125,7.99257812 10.8322266,7.99257812 11.0509766,8.21132812 Z" id="路径" fill="#FFFFFF"></path>
                            <path d="M11.0509766,12.0599609 C10.8322266,12.2787109 10.478125,12.2787109 10.259375,12.0599609 L8.73085937,10.5314453 C8.51210937,10.3126953 8.51210937,9.95859375 8.73085937,9.73984375 C8.94960937,9.52109375 9.30371094,9.52109375 9.52246094,9.73984375 L11.0509766,11.2683594 C11.2697266,11.4871094 11.2697266,11.8412109 11.0509766,12.0599609 Z" id="路径" fill="#FFFFFF"></path>
                            <path d="M13.4941406,10.1363281 C13.4941406,10.4453125 13.2439453,10.696875 12.9335938,10.696875 L9.12734375,10.696875 C8.81835938,10.696875 8.56679687,10.4466797 8.56679687,10.1363281 C8.56679687,9.82734375 8.81699219,9.57578125 9.12734375,9.57578125 L12.9335938,9.57578125 C13.2439453,9.57578125 13.4941406,9.82734375 13.4941406,10.1363281 Z" id="路径" fill="#FFFFFF"></path>
                            <path d="M11.0509766,8.21132812 C11.2697266,8.43007812 11.2697266,8.78417969 11.0509766,9.00292969 L9.52246094,10.5314453 C9.30371094,10.7501953 8.94960937,10.7501953 8.73085937,10.5314453 C8.51210937,10.3126953 8.51210937,9.95859375 8.73085937,9.73984375 L10.259375,8.21132812 C10.478125,7.99257812 10.8322266,7.99257812 11.0509766,8.21132812 Z" id="路径" fill="#FFFFFF"></path>
                            <path d="M11.0509766,12.0599609 C10.8322266,12.2787109 10.478125,12.2787109 10.259375,12.0599609 L8.73085937,10.5314453 C8.51210937,10.3126953 8.51210937,9.95859375 8.73085937,9.73984375 C8.94960937,9.52109375 9.30371094,9.52109375 9.52246094,9.73984375 L11.0509766,11.2683594 C11.2697266,11.4871094 11.2697266,11.8412109 11.0509766,12.0599609 Z" id="路径" fill="#FFFFFF"></path>
                        </g>
                    </g>
                </g>
            </g>
        </g>
    </g>
</svg>